<svg width="32" height="32" viewBox="0 0 32 32" fill="none" xmlns="http://www.w3.org/2000/svg">
<path d="M17.085 0.417776C16.652 0.139563 16.1433 -0.0058926 15.6246 0.000182842C15.1059 0.00625828 14.601 0.163586 14.175 0.451859L1.11001 9.31364C0.767743 9.54622 0.488133 9.85577 0.294899 10.216C0.101665 10.5763 0.000508561 10.9766 1.01389e-05 11.383V20.9362C-0.00119286 21.3549 0.104675 21.7674 0.308061 22.1363C0.511448 22.5052 0.805954 22.819 1.16501 23.0494L14.435 31.5801C14.8598 31.854 15.358 32 15.8675 32C16.377 32 16.8752 31.854 17.3 31.5801L30.8349 22.8838C31.1953 22.6537 31.4908 22.3392 31.6943 21.9692C31.8978 21.5992 32.0029 21.1855 31.9999 20.7658V11.3879C32.0004 10.9705 31.8947 10.5595 31.6923 10.1916C31.4899 9.82371 31.197 9.51036 30.8399 9.27955L17.085 0.417776ZM27.195 10.7549L22.195 14.0269L17.5 10.7111L17.47 4.16699L27.195 10.7549ZM14.075 4.17186V10.5747L9.26999 13.8468L4.5 10.7111L14.075 4.17186ZM3.155 13.8663L6.265 15.8967L3.155 18.0147V13.8663ZM14.155 27.4998L4.5 21.1797L9.33999 17.8881L14.185 21.0531L14.155 27.4998ZM12.315 15.8139L15.45 13.6764L19.11 16.0671L15.87 18.1608L12.315 15.8139ZM17.575 27.4998V21.0531L22.21 18.0147L27.2099 21.2089L17.575 27.4998ZM28.5749 18.1073L25.285 16.0087L28.5749 13.8614V18.1073Z" fill="#1FEBF3"/>
</svg>
