<svg width="64" height="64" viewBox="0 0 64 64" fill="none" xmlns="http://www.w3.org/2000/svg">
<g filter="url(#filter0_di)">
<rect x="9" y="5" width="46" height="46" rx="23" stroke="#1FEBF3" stroke-width="2"/>
</g>
<path fill-rule="evenodd" clip-rule="evenodd" d="M40.2284 36.2595C40.2284 37.4943 39.1835 38.4988 37.8983 38.4988H35.1879V31.6934C35.1879 31.2793 34.8593 30.9428 34.4521 30.9428H29.5466C29.1394 30.9428 28.8107 31.2793 28.8107 31.6934V38.4988H25.6344C24.3491 38.4988 23.3043 37.4943 23.3043 36.2595V26.1452L31.6523 17.6285C31.8448 17.4333 32.1551 17.4333 32.3464 17.6285L40.2284 25.6699V36.2595ZM30.2834 38.4488H33.7172V32.444H30.2834V38.4488ZM44.7839 28.1931L33.387 16.5676C32.6463 15.8108 31.3537 15.8108 30.613 16.5676L19.2162 28.1931C18.9279 28.4871 18.9279 28.9625 19.2162 29.2552C19.5031 29.5479 19.9692 29.5479 20.2561 29.2552L21.8333 27.6464V36.2595C21.8333 38.3224 23.5392 40 25.6351 40H37.8989C39.996 40 41.7007 38.3224 41.7007 36.2595V27.1711L43.7439 29.2552C43.8874 29.4016 44.075 29.4754 44.2639 29.4754C44.4515 29.4754 44.6404 29.4016 44.7839 29.2552C45.0721 28.9625 45.0721 28.4871 44.7839 28.1931Z" fill="#1FEBF3"/>
<path d="M35.1879 38.4988H34.9379V38.7488H35.1879V38.4988ZM28.8107 38.4988V38.7488H29.0607V38.4988H28.8107ZM23.3043 26.1452L23.1257 25.9702L23.0543 26.0432V26.1452H23.3043ZM31.6523 17.6285L31.4743 17.4529L31.4737 17.4535L31.6523 17.6285ZM32.3464 17.6285L32.5249 17.4535L32.5249 17.4535L32.3464 17.6285ZM40.2284 25.6699H40.4784V25.5678L40.4069 25.4949L40.2284 25.6699ZM30.2834 38.4488H30.0334V38.6988H30.2834V38.4488ZM33.7172 38.4488V38.6988H33.9672V38.4488H33.7172ZM33.7172 32.444H33.9672V32.194H33.7172V32.444ZM30.2834 32.444V32.194H30.0334V32.444H30.2834ZM33.387 16.5676L33.2084 16.7425L33.2085 16.7427L33.387 16.5676ZM30.613 16.5676L30.7915 16.7427L30.7916 16.7425L30.613 16.5676ZM19.2162 28.1931L19.3947 28.3681L19.2162 28.1931ZM19.2162 29.2552L19.3947 29.0802L19.3943 29.0798L19.2162 29.2552ZM20.2561 29.2552L20.0776 29.0802H20.0776L20.2561 29.2552ZM21.8333 27.6464H22.0833V27.0343L21.6547 27.4714L21.8333 27.6464ZM41.7007 27.1711L41.8792 26.996L41.4507 26.5589V27.1711H41.7007ZM43.7439 29.2552L43.5654 29.4302L43.7439 29.2552ZM44.7839 29.2552L44.6057 29.0798L44.6053 29.0802L44.7839 29.2552ZM39.9784 36.2595C39.9784 37.3469 39.0549 38.2488 37.8983 38.2488V38.7488C39.3121 38.7488 40.4784 37.6416 40.4784 36.2595H39.9784ZM37.8983 38.2488H35.1879V38.7488H37.8983V38.2488ZM35.4379 38.4988V31.6934H34.9379V38.4988H35.4379ZM35.4379 31.6934C35.4379 31.1462 35.0023 30.6928 34.4521 30.6928V31.1928C34.7163 31.1928 34.9379 31.4124 34.9379 31.6934H35.4379ZM34.4521 30.6928H29.5466V31.1928H34.4521V30.6928ZM29.5466 30.6928C28.9964 30.6928 28.5607 31.1462 28.5607 31.6934H29.0607C29.0607 31.4124 29.2824 31.1928 29.5466 31.1928V30.6928ZM28.5607 31.6934V38.4988H29.0607V31.6934H28.5607ZM28.8107 38.2488H25.6344V38.7488H28.8107V38.2488ZM25.6344 38.2488C24.4778 38.2488 23.5543 37.3469 23.5543 36.2595H23.0543C23.0543 37.6416 24.2205 38.7488 25.6344 38.7488V38.2488ZM23.5543 36.2595V26.1452H23.0543V36.2595H23.5543ZM23.4828 26.3202L31.8308 17.8035L31.4737 17.4535L23.1257 25.9702L23.4828 26.3202ZM31.8302 17.8041C31.9252 17.7078 32.0749 17.7086 32.1679 17.8035L32.5249 17.4535C32.2353 17.158 31.7644 17.1588 31.4743 17.4529L31.8302 17.8041ZM32.1679 17.8035L40.0499 25.8449L40.4069 25.4949L32.5249 17.4535L32.1679 17.8035ZM39.9784 25.6699V36.2595H40.4784V25.6699H39.9784ZM30.2834 38.6988H33.7172V38.1988H30.2834V38.6988ZM33.9672 38.4488V32.444H33.4672V38.4488H33.9672ZM33.7172 32.194H30.2834V32.694H33.7172V32.194ZM30.0334 32.444V38.4488H30.5334V32.444H30.0334ZM44.9624 28.0181L33.5656 16.3926L33.2085 16.7427L44.6053 28.3681L44.9624 28.0181ZM33.5657 16.3928C32.7269 15.5357 31.2731 15.5357 30.4343 16.3928L30.7916 16.7425C31.4343 16.0858 32.5657 16.0858 33.2084 16.7425L33.5657 16.3928ZM30.4344 16.3926L19.0376 28.0181L19.3947 28.3681L30.7915 16.7427L30.4344 16.3926ZM19.0376 28.0181C18.6543 28.4091 18.6538 29.0404 19.038 29.4306L19.3943 29.0798C19.2021 28.8846 19.2016 28.5651 19.3947 28.3681L19.0376 28.0181ZM19.0376 29.4302C19.4226 29.8229 20.0497 29.8229 20.4346 29.4302L20.0776 29.0802C19.8886 29.273 19.5836 29.273 19.3947 29.0802L19.0376 29.4302ZM20.4346 29.4302L22.0118 27.8215L21.6547 27.4714L20.0776 29.0802L20.4346 29.4302ZM21.5833 27.6464V36.2595H22.0833V27.6464H21.5833ZM21.5833 36.2595C21.5833 38.4643 23.405 40.25 25.6351 40.25V39.75C23.6733 39.75 22.0833 38.1805 22.0833 36.2595H21.5833ZM25.6351 40.25H37.8989V39.75H25.6351V40.25ZM37.8989 40.25C40.1303 40.25 41.9507 38.4643 41.9507 36.2595H41.4507C41.4507 38.1805 39.8618 39.75 37.8989 39.75V40.25ZM41.9507 36.2595V27.1711H41.4507V36.2595H41.9507ZM41.5222 27.3461L43.5654 29.4302L43.9224 29.0802L41.8792 26.996L41.5222 27.3461ZM43.5654 29.4302C43.7568 29.6256 44.0093 29.7254 44.2639 29.7254V29.2254C44.1407 29.2254 44.0179 29.1776 43.9224 29.0802L43.5654 29.4302ZM44.2639 29.7254C44.517 29.7254 44.7707 29.6257 44.9624 29.4302L44.6053 29.0802C44.51 29.1774 44.386 29.2254 44.2639 29.2254V29.7254ZM44.962 29.4306C45.3462 29.0404 45.3457 28.4091 44.9624 28.0181L44.6053 28.3681C44.7984 28.5651 44.7979 28.8846 44.6057 29.0798L44.962 29.4306Z" fill="#1FEBF3"/>
<defs>
<filter id="filter0_di" x="0" y="0" width="64" height="64" filterUnits="userSpaceOnUse" color-interpolation-filters="sRGB">
<feFlood flood-opacity="0" result="BackgroundImageFix"/>
<feColorMatrix in="SourceAlpha" type="matrix" values="0 0 0 0 0 0 0 0 0 0 0 0 0 0 0 0 0 0 127 0"/>
<feOffset dy="4"/>
<feGaussianBlur stdDeviation="4"/>
<feColorMatrix type="matrix" values="0 0 0 0 0 0 0 0 0 0 0 0 0 0 0 0 0 0 0.25 0"/>
<feBlend mode="normal" in2="BackgroundImageFix" result="effect1_dropShadow"/>
<feBlend mode="normal" in="SourceGraphic" in2="effect1_dropShadow" result="shape"/>
<feColorMatrix in="SourceAlpha" type="matrix" values="0 0 0 0 0 0 0 0 0 0 0 0 0 0 0 0 0 0 127 0" result="hardAlpha"/>
<feOffset dy="1"/>
<feComposite in2="hardAlpha" operator="arithmetic" k2="-1" k3="1"/>
<feColorMatrix type="matrix" values="0 0 0 0 1 0 0 0 0 1 0 0 0 0 1 0 0 0 0.15 0"/>
<feBlend mode="normal" in2="shape" result="effect2_innerShadow"/>
</filter>
</defs>
</svg>
