<svg width="66" height="8" viewBox="0 0 66 8" fill="none" xmlns="http://www.w3.org/2000/svg">
<path opacity="0.8" d="M1.10418 3.34337C0.908589 3.53831 0.908063 3.85489 1.103 4.05048L3.89124 6.84801C4.2057 7.16352 4.74464 6.94133 4.74538 6.49588L4.74753 5.20299C4.74799 4.92685 4.97222 4.70336 5.24836 4.70382L64.7483 4.80284C65.0244 4.8033 65.2487 4.57982 65.2491 4.30368L65.2508 3.30368C65.2512 3.02754 65.0277 2.80331 64.7516 2.80285L5.25169 2.70383C4.97555 2.70337 4.75207 2.47914 4.75253 2.20299L4.75468 0.910103C4.75542 0.464651 4.21722 0.240672 3.90171 0.555129L1.10418 3.34337Z" fill="white"/>
</svg>
