<svg width="66" height="8" viewBox="0 0 66 8" fill="none" xmlns="http://www.w3.org/2000/svg">
<path opacity="0.8" d="M64.8957 4.16435C65.0914 3.96946 65.092 3.65288 64.8971 3.45725L62.1095 0.659033C61.7951 0.343451 61.2561 0.565508 61.2553 1.01096L61.2528 2.30385C61.2523 2.57999 61.028 2.80342 60.7519 2.8029L1.25197 2.68948C0.97583 2.68895 0.751545 2.91238 0.751019 3.18852L0.749113 4.18852C0.748586 4.46466 0.972017 4.68895 1.24816 4.68948L60.7481 4.80289C61.0242 4.80342 61.2476 5.0277 61.2471 5.30384L61.2446 6.59674C61.2438 7.04219 61.7819 7.2663 62.0975 6.95192L64.8957 4.16435Z" fill="white"/>
</svg>
