<svg width="176" height="48" viewBox="0 0 176 48" fill="none" xmlns="http://www.w3.org/2000/svg">
<path d="M176 43.19C176 43.8216 175.869 44.4471 175.615 45.0307C175.361 45.6143 174.988 46.1445 174.518 46.5912C174.048 47.0378 173.49 47.3921 172.876 47.6339C172.263 47.8756 171.605 48 170.94 48H5.07035C4.405 48.0013 3.74591 47.8779 3.13081 47.6367C2.5157 47.3956 1.95667 47.0415 1.48571 46.5947C1.01474 46.1479 0.641098 45.6172 0.38616 45.033C0.131223 44.4488 -1.4379e-06 43.8225 0 43.19L0 4.82C0 3.54166 0.534196 2.31567 1.48507 1.41174C2.43595 0.50782 3.72561 0 5.07035 0L170.93 0C172.274 0 173.564 0.50782 174.515 1.41174C175.466 2.31567 176 3.54166 176 4.82V43.19Z" fill="black"/>
<path d="M40.7849 23.05C40.8007 21.8215 41.1272 20.617 41.734 19.5486C42.3407 18.4803 43.2079 17.5829 44.2549 16.94C43.5897 15.9891 42.7118 15.2066 41.691 14.6545C40.6703 14.1025 39.5348 13.7962 38.3749 13.76C35.9049 13.5 33.5149 15.24 32.2549 15.24C30.9949 15.24 29.0449 13.78 26.9349 13.83C25.5862 13.8724 24.2715 14.263 23.1184 14.964C21.9654 15.6649 21.0134 16.6522 20.3549 17.83C17.5049 22.76 19.6249 30 22.3549 33.99C23.7249 35.99 25.3549 38.12 27.4049 38.04C29.4549 37.96 30.2049 36.74 32.6749 36.74C35.1449 36.74 35.8349 38.04 37.9549 37.99C40.0749 37.94 41.5349 35.99 42.8449 34.06C43.8104 32.6706 44.5527 31.1388 45.0449 29.52C43.7693 28.9867 42.6803 28.0877 41.915 26.9362C41.1498 25.7848 40.7426 24.4325 40.7449 23.05H40.7849ZM36.7849 11.14C37.9818 9.70658 38.5705 7.86176 38.4249 6C36.6009 6.19154 34.9159 7.06263 33.7049 8.44C32.5227 9.80781 31.9264 11.586 32.0449 13.39C32.9581 13.3986 33.8615 13.2007 34.6875 12.8111C35.5135 12.4215 36.2408 11.8502 36.8149 11.14H36.7849Z" fill="white"/>
<path d="M70.3649 37.77H67.5049L65.9449 32.86H60.5149L59.0449 37.77H56.2449L61.6249 21.05H64.9549L70.3649 37.77ZM65.4749 30.77L64.0449 26.43C63.8949 25.99 63.6049 24.94 63.1949 23.28H63.1449C62.9849 23.99 62.7149 25.04 62.3549 26.43L60.9649 30.8L65.4749 30.77ZM84.1849 31.56C84.2811 33.3355 83.6821 35.0786 82.5149 36.42C82.0433 36.9341 81.4677 37.3418 80.8262 37.6159C80.1848 37.8901 79.4923 38.0244 78.7949 38.01C78.121 38.0671 77.4443 37.9389 76.838 37.6393C76.2317 37.3396 75.7189 36.88 75.3549 36.31V42.64H72.6749V29.64C72.6749 28.35 72.6749 27.03 72.5749 25.64H74.9249L75.0449 27.63C75.4507 27.0084 75.996 26.4901 76.6374 26.1163C77.2788 25.7426 77.9986 25.5237 78.7395 25.477C79.4804 25.4304 80.222 25.5574 80.9052 25.8478C81.5884 26.1383 82.1943 26.5842 82.6749 27.15C83.6704 28.4097 84.1781 29.9861 84.1049 31.59L84.1849 31.56ZM81.4549 31.66C81.4922 30.6341 81.2129 29.6216 80.6549 28.76C80.3972 28.3824 80.0488 28.0756 79.6417 27.8677C79.2346 27.6598 78.7818 27.5574 78.3249 27.57C77.6656 27.5696 77.0276 27.8035 76.5249 28.23C76.0087 28.6754 75.6566 29.281 75.5249 29.95C75.45 30.2171 75.4097 30.4927 75.4049 30.77V32.77C75.381 33.5846 75.6669 34.3779 76.2049 34.99C76.4674 35.285 76.7916 35.5185 77.1546 35.674C77.5175 35.8296 77.9102 35.9033 78.3049 35.89C78.7623 35.9084 79.217 35.8118 79.6276 35.6092C80.0381 35.4065 80.3913 35.1043 80.6549 34.73C81.2356 33.8265 81.5156 32.7624 81.4549 31.69V31.66ZM98.0549 31.56C98.1511 33.3355 97.5521 35.0786 96.3849 36.42C95.9133 36.9341 95.3377 37.3418 94.6962 37.6159C94.0548 37.8901 93.3623 38.0244 92.6649 38.01C91.9896 38.0667 91.3117 37.9385 90.7039 37.639C90.096 37.3394 89.5813 36.88 89.2149 36.31V42.64H86.5449V29.64C86.5449 28.35 86.5449 27.03 86.4449 25.64H88.7949L88.9449 27.56C89.3507 26.9384 89.896 26.4201 90.5374 26.0463C91.1788 25.6726 91.8986 25.4537 92.6395 25.407C93.3804 25.3604 94.122 25.4874 94.8052 25.7778C95.4884 26.0683 96.0943 26.5142 96.5749 27.08C97.6009 28.3524 98.1241 29.9573 98.0449 31.59L98.0549 31.56ZM95.3249 31.66C95.3622 30.6341 95.0829 29.6216 94.5249 28.76C94.2665 28.3831 93.918 28.0768 93.5111 27.8689C93.1041 27.6611 92.6517 27.5583 92.1949 27.57C91.5356 27.5696 90.8976 27.8035 90.3949 28.23C89.8756 28.6729 89.5229 29.2796 89.3949 29.95C89.3208 30.2176 89.2772 30.4927 89.2649 30.77V32.77C89.2262 33.5954 89.5054 34.4042 90.0449 35.03C90.307 35.3255 90.6311 35.5594 90.9942 35.715C91.3572 35.8706 91.7501 35.944 92.1449 35.93C92.6023 35.9484 93.057 35.8518 93.4675 35.6492C93.8781 35.4465 94.2313 35.1443 94.4949 34.77C95.0944 33.8588 95.3854 32.7791 95.3249 31.69V31.66ZM113.555 33.05C113.578 33.7088 113.455 34.3646 113.194 34.9699C112.932 35.5752 112.54 36.1149 112.045 36.55C110.764 37.5956 109.136 38.1205 107.485 38.02C105.976 38.1023 104.475 37.7556 103.155 37.02L103.775 34.78C104.95 35.4596 106.288 35.8054 107.645 35.78C108.488 35.8316 109.322 35.5875 110.005 35.09C110.278 34.8738 110.496 34.5964 110.642 34.2802C110.788 33.964 110.857 33.618 110.845 33.27C110.853 32.953 110.796 32.6376 110.677 32.3435C110.558 32.0494 110.381 31.7827 110.155 31.56C109.485 30.9963 108.71 30.5714 107.875 30.31C104.948 29.2233 103.485 27.6267 103.485 25.52C103.465 24.8714 103.596 24.227 103.866 23.6372C104.137 23.0474 104.54 22.5282 105.045 22.12C106.206 21.1961 107.663 20.7268 109.145 20.8C110.458 20.7546 111.762 21.0292 112.945 21.6L112.275 23.78C111.28 23.2556 110.169 22.9907 109.045 23.01C108.244 22.9593 107.452 23.2089 106.825 23.71C106.612 23.8995 106.442 24.1322 106.327 24.3926C106.211 24.653 106.153 24.9351 106.155 25.22C106.145 25.5347 106.21 25.8472 106.344 26.1322C106.477 26.4172 106.677 26.6665 106.925 26.86C107.66 27.4176 108.481 27.8532 109.355 28.15C110.552 28.5627 111.637 29.2473 112.525 30.15C113.207 30.959 113.563 31.9927 113.525 33.05H113.555ZM122.435 27.69H119.435V33.55C119.435 35.04 119.955 35.78 120.995 35.78C121.396 35.7911 121.796 35.7473 122.185 35.65L122.265 37.65C121.594 37.8682 120.89 37.9664 120.185 37.94C119.723 37.9602 119.261 37.8814 118.832 37.709C118.402 37.5365 118.015 37.2744 117.695 36.94C117.014 36.0002 116.698 34.8454 116.805 33.69V27.72H115.045V25.72H116.805V23.5L119.435 22.71V25.71H122.435V27.71V27.69ZM135.735 31.61C135.802 33.2795 135.233 34.9124 134.145 36.18C133.588 36.7879 132.904 37.2667 132.142 37.5828C131.381 37.8989 130.559 38.0447 129.735 38.01C128.948 38.0543 128.162 37.925 127.431 37.6312C126.7 37.3374 126.042 36.8863 125.505 36.31C124.433 35.0849 123.868 33.4971 123.925 31.87C123.863 30.1971 124.446 28.5644 125.555 27.31C126.111 26.7117 126.791 26.2416 127.548 25.9325C128.304 25.6234 129.119 25.4827 129.935 25.52C130.73 25.4877 131.523 25.6284 132.258 25.9322C132.994 26.2361 133.654 26.6959 134.195 27.28C135.253 28.4994 135.804 30.0773 135.735 31.69V31.61ZM132.955 31.67C132.986 30.6759 132.74 29.6927 132.245 28.83C132.018 28.3884 131.672 28.0192 131.246 27.7646C130.82 27.5101 130.331 27.3802 129.835 27.39C129.331 27.3767 128.834 27.5044 128.399 27.7589C127.965 28.0134 127.61 28.3844 127.375 28.83C126.873 29.7084 126.623 30.7087 126.655 31.72C126.626 32.7184 126.875 33.7051 127.375 34.57C127.608 35.0094 127.957 35.3769 128.383 35.6333C128.809 35.8896 129.297 36.025 129.795 36.025C130.292 36.025 130.78 35.8896 131.207 35.6333C131.633 35.3769 131.982 35.0094 132.215 34.57C132.727 33.6984 132.983 32.7004 132.955 31.69V31.67ZM144.445 28.04C144.168 27.9865 143.887 27.9631 143.605 27.97C143.182 27.9492 142.76 28.0354 142.379 28.2207C141.998 28.4059 141.67 28.6843 141.425 29.03C140.956 29.7327 140.721 30.5658 140.755 31.41V37.74H138.045V29.51C138.045 28.25 138.045 26.98 137.965 25.72H140.295L140.395 28.02H140.475C140.725 27.2659 141.191 26.6019 141.815 26.11C142.37 25.6905 143.049 25.4656 143.745 25.47C143.968 25.4535 144.192 25.4535 144.415 25.47V28.03L144.445 28.04ZM156.445 31.14C156.447 31.5488 156.413 31.957 156.345 32.36H148.345C148.327 32.8731 148.423 33.3838 148.625 33.8557C148.827 34.3276 149.131 34.749 149.515 35.09C150.264 35.6733 151.196 35.971 152.145 35.93C153.254 35.944 154.356 35.7507 155.395 35.36L155.815 37.22C154.531 37.7449 153.152 37.9969 151.765 37.96C150.958 38.0036 150.151 37.8805 149.394 37.5983C148.637 37.3161 147.946 36.881 147.365 36.32C146.817 35.7251 146.393 35.0269 146.118 34.2662C145.844 33.5056 145.724 32.6977 145.765 31.89C145.708 30.2479 146.236 28.6388 147.255 27.35C147.758 26.7199 148.402 26.2169 149.135 25.8817C149.868 25.5464 150.669 25.3883 151.475 25.42C152.242 25.3768 153.007 25.5317 153.697 25.8697C154.387 26.2077 154.979 26.7175 155.415 27.35C156.155 28.472 156.529 29.7963 156.485 31.14H156.445ZM153.885 30.45C153.92 29.7269 153.739 29.0097 153.365 28.39C153.14 28.033 152.821 27.7439 152.444 27.5537C152.067 27.3635 151.646 27.2792 151.225 27.31C150.8 27.2942 150.378 27.3847 149.998 27.5733C149.617 27.7619 149.29 28.0426 149.045 28.39C148.593 28.996 148.319 29.7165 148.255 30.47L153.885 30.45Z" fill="white"/>
<path d="M59.7349 15.14C59.0936 15.1423 58.4526 15.1089 57.8149 15.04V6.95998C58.5527 6.84547 59.2983 6.78863 60.0449 6.78998C63.1149 6.78998 64.5249 8.29998 64.5249 10.79C64.5649 13.61 62.8949 15.14 59.7349 15.14ZM60.1849 7.82998C59.8299 7.82242 59.4749 7.84922 59.1249 7.90998V14.05C59.4212 14.0718 59.7187 14.0718 60.0149 14.05C62.0149 14.05 63.1749 12.91 63.1749 10.76C63.2154 10.36 63.1653 9.95602 63.0285 9.578C62.8916 9.19999 62.6714 8.8576 62.3843 8.57622C62.0971 8.29484 61.7504 8.08166 61.3696 7.95248C60.9889 7.82331 60.584 7.78144 60.1849 7.82998ZM68.9749 15.2C68.5819 15.2055 68.1921 15.1288 67.8305 14.9747C67.4689 14.8207 67.1434 14.5928 66.8751 14.3056C66.6067 14.0184 66.4014 13.6783 66.2722 13.3071C66.143 12.9359 66.0928 12.5417 66.1249 12.15C66.0905 11.7413 66.1435 11.3301 66.2803 10.9435C66.4171 10.5569 66.6346 10.2038 66.9183 9.90773C67.2021 9.61167 67.5456 9.37939 67.9261 9.22633C68.3065 9.07327 68.7152 9.00293 69.1249 9.01998C69.5147 9.01048 69.9021 9.08278 70.2622 9.23221C70.6223 9.38164 70.9471 9.60488 71.2157 9.88754C71.4842 10.1702 71.6905 10.506 71.8213 10.8733C71.9521 11.2406 72.0044 11.6312 71.9749 12.02C72.0086 12.4248 71.9569 12.8321 71.8232 13.2156C71.6894 13.5991 71.4766 13.9502 71.1985 14.2463C70.9204 14.5423 70.5832 14.7766 70.2088 14.934C69.8343 15.0914 69.431 15.1684 69.0249 15.16L68.9749 15.2ZM68.9749 9.97998C67.9749 9.97998 67.4149 10.87 67.4149 12.12C67.4149 13.37 68.0449 14.23 69.0449 14.23C70.0449 14.23 70.5949 13.23 70.5949 12.09C70.5949 10.95 69.9849 9.97998 69.0549 9.97998H68.9749ZM81.7549 9.13998L79.9049 15.07H78.7449L77.9749 12.49C77.7849 11.87 77.6249 11.23 77.4949 10.58C77.3955 11.2275 77.2451 11.8662 77.0449 12.49L76.2349 15.07H74.9649L73.2149 9.13998H74.5749L75.2449 11.96C75.4049 12.63 75.5349 13.26 75.6449 13.86C75.7449 13.36 75.9049 12.74 76.1349 11.97L77.0449 9.13998H78.0449L78.8449 11.91C79.0449 12.58 79.2049 13.24 79.3249 13.91C79.4206 13.2356 79.5575 12.5676 79.7349 11.91L80.4549 9.13998H81.7549ZM88.5749 15.07H87.3149V11.67C87.3149 10.67 86.9049 10.09 86.1149 10.09C85.9323 10.0963 85.7529 10.1391 85.587 10.2159C85.4212 10.2926 85.2725 10.4018 85.1495 10.5369C85.0265 10.672 84.9317 10.8304 84.8709 11.0026C84.81 11.1749 84.7842 11.3576 84.7949 11.54V15.07H83.4849V10.84C83.4849 10.31 83.4849 9.74998 83.4849 9.13998H84.6449L84.7049 10.06C84.903 9.743 85.181 9.48372 85.511 9.30819C85.841 9.13266 86.2114 9.04706 86.5849 9.05998C87.8349 9.05998 88.6449 10.01 88.6449 11.56V15.11L88.5749 15.07ZM92.2049 15.07H90.9449V6.41998H92.2549L92.2049 15.07ZM97.0149 15.2C96.6215 15.2053 96.2313 15.1286 95.8692 14.9747C95.5071 14.8208 95.1811 14.593 94.912 14.306C94.6428 14.019 94.4365 13.679 94.3062 13.3078C94.1758 12.9366 94.1243 12.5422 94.1549 12.15C94.1205 11.7413 94.1735 11.3301 94.3103 10.9435C94.4471 10.5569 94.6646 10.2038 94.9483 9.90773C95.2321 9.61167 95.5756 9.37939 95.9561 9.22633C96.3365 9.07327 96.7452 9.00293 97.1549 9.01998C97.5451 9.01061 97.9329 9.08292 98.2935 9.23225C98.6541 9.38158 98.9795 9.60465 99.2488 9.88713C99.5181 10.1696 99.7253 10.5053 99.8573 10.8726C99.9892 11.2399 100.043 11.6307 100.015 12.02C100.049 12.4291 99.9962 12.8408 99.8595 13.2279C99.7228 13.6149 99.5055 13.9686 99.2219 14.2654C98.9383 14.5622 98.5949 14.7955 98.2145 14.9497C97.834 15.1039 97.4252 15.1756 97.0149 15.16V15.2ZM97.0149 9.97998C96.0149 9.97998 95.4549 10.87 95.4549 12.12C95.4549 13.37 96.0849 14.23 97.0049 14.23C97.9249 14.23 98.5549 13.23 98.5549 12.09C98.5549 10.95 97.9449 9.97998 97.0149 9.97998ZM105.115 15.07L105.015 14.39C104.817 14.6586 104.555 14.8734 104.253 15.0149C103.951 15.1563 103.618 15.22 103.285 15.2C103.049 15.2137 102.813 15.1788 102.591 15.0972C102.37 15.0157 102.167 14.8894 101.996 14.7261C101.825 14.5629 101.69 14.3662 101.599 14.1484C101.507 13.9305 101.462 13.6962 101.465 13.46C101.465 12 102.735 11.24 104.925 11.24V11.13C104.925 10.35 104.515 9.95998 103.695 9.95998C103.147 9.95336 102.608 10.1062 102.145 10.4L101.885 9.52998C102.491 9.17774 103.184 9.00116 103.885 9.01998C105.435 9.01998 106.215 9.83998 106.215 11.47V13.65C106.206 14.125 106.237 14.5999 106.305 15.07H105.115ZM105.045 12.12C103.585 12.12 102.845 12.47 102.845 13.31C102.831 13.4328 102.845 13.5572 102.885 13.6742C102.925 13.7911 102.99 13.8978 103.076 13.9867C103.162 14.0755 103.267 14.1443 103.382 14.188C103.498 14.2318 103.622 14.2496 103.745 14.24C104.077 14.2482 104.399 14.1262 104.642 13.9C104.885 13.6738 105.029 13.3616 105.045 13.03V12.12ZM112.725 15.07L112.655 14.12C112.477 14.4649 112.203 14.7507 111.866 14.9425C111.528 15.1342 111.142 15.2237 110.755 15.2C109.325 15.2 108.265 13.95 108.265 12.2C108.265 10.45 109.365 9.03998 110.855 9.03998C111.181 9.006 111.51 9.06383 111.805 9.20695C112.1 9.35007 112.35 9.57279 112.525 9.84998V6.41998H113.845V13.47C113.845 14.04 113.845 14.58 113.845 15.07H112.725ZM112.525 11.58C112.538 11.3868 112.513 11.1928 112.45 11.0097C112.387 10.8266 112.287 10.6582 112.157 10.5144C112.028 10.3706 111.87 10.2545 111.695 10.173C111.519 10.0915 111.329 10.0462 111.135 10.04C110.135 10.04 109.565 10.91 109.565 12.13C109.565 13.35 110.185 14.13 111.115 14.13C111.312 14.1224 111.505 14.0754 111.683 13.9918C111.861 13.9082 112.021 13.7897 112.152 13.6433C112.284 13.4969 112.384 13.3255 112.448 13.1395C112.512 12.9534 112.538 12.7563 112.525 12.56V11.56V11.58ZM122.205 15.2C121.812 15.2053 121.421 15.1286 121.059 14.9747C120.697 14.8208 120.371 14.593 120.102 14.306C119.833 14.019 119.627 13.679 119.496 13.3078C119.366 12.9366 119.314 12.5422 119.345 12.15C119.311 11.7413 119.363 11.3301 119.5 10.9435C119.637 10.5569 119.855 10.2038 120.138 9.90773C120.422 9.61167 120.766 9.37939 121.146 9.22633C121.527 9.07327 121.935 9.00293 122.345 9.01998C122.735 9.01061 123.123 9.08292 123.484 9.23225C123.844 9.38158 124.169 9.60465 124.439 9.88713C124.708 10.1696 124.915 10.5053 125.047 10.8726C125.179 11.2399 125.233 11.6307 125.205 12.02C125.239 12.4291 125.186 12.8408 125.05 13.2279C124.913 13.6149 124.695 13.9686 124.412 14.2654C124.128 14.5622 123.785 14.7955 123.404 14.9497C123.024 15.1039 122.615 15.1756 122.205 15.16V15.2ZM122.205 9.97998C121.205 9.97998 120.645 10.87 120.645 12.12C120.645 13.37 121.265 14.23 122.185 14.23C123.105 14.23 123.735 13.23 123.735 12.09C123.735 10.95 123.125 9.97998 122.205 9.97998ZM132.205 15.07H130.885V11.67C130.885 10.67 130.485 10.09 129.695 10.09C129.512 10.0963 129.333 10.1391 129.167 10.2159C129.001 10.2926 128.852 10.4018 128.729 10.5369C128.606 10.672 128.512 10.8304 128.451 11.0026C128.39 11.1749 128.364 11.3576 128.375 11.54V15.07H127.045V10.84C127.045 10.31 127.045 9.74998 127.045 9.13998H128.205L128.265 10.06C128.461 9.74157 128.739 9.48115 129.07 9.30543C129.4 9.1297 129.771 9.04499 130.145 9.05998C131.385 9.05998 132.205 10.01 132.205 11.56V15.07ZM141.045 10.13H139.595V13.01C139.595 13.74 139.855 14.11 140.365 14.11C140.56 14.1114 140.755 14.0879 140.945 14.04V15.04C140.623 15.1484 140.284 15.1991 139.945 15.19C138.945 15.19 138.285 14.62 138.285 13.12V10.12H137.415V9.11998H138.285V8.05998L139.575 7.66998V9.13998H141.045V10.14V10.13ZM148.045 15.07H146.735V11.69C146.735 10.63 146.335 10.09 145.535 10.09C145.353 10.0865 145.172 10.1214 145.004 10.1922C144.837 10.2631 144.686 10.3684 144.561 10.5013C144.437 10.6342 144.342 10.7918 144.282 10.9639C144.222 11.1359 144.199 11.3185 144.215 11.5V15.07H142.905V6.41998H144.215V9.97998C144.394 9.66879 144.655 9.41171 144.968 9.23574C145.281 9.05978 145.636 8.97143 145.995 8.97998C147.255 8.97998 147.995 9.97998 147.995 11.5V15.03L148.045 15.07ZM155.195 12.42H151.195C151.187 12.6628 151.23 12.9046 151.323 13.1293C151.416 13.3539 151.555 13.5563 151.732 13.7228C151.909 13.8893 152.119 14.0162 152.349 14.0951C152.579 14.1739 152.823 14.2029 153.065 14.18C153.611 14.1843 154.153 14.0894 154.665 13.9L154.865 14.81C154.231 15.069 153.55 15.195 152.865 15.18C152.461 15.2187 152.054 15.1677 151.673 15.0306C151.291 14.8935 150.945 14.6738 150.658 14.3871C150.371 14.1004 150.151 13.7539 150.014 13.3723C149.877 12.9907 149.826 12.5836 149.865 12.18C149.825 11.7835 149.867 11.3829 149.989 11.0036C150.111 10.6242 150.311 10.2742 150.575 9.97558C150.839 9.67694 151.161 9.4361 151.523 9.26821C151.884 9.10031 152.277 9.00899 152.675 8.99998C154.185 8.99998 155.135 10.12 155.135 11.82C155.155 12.0161 155.155 12.2138 155.135 12.41L155.195 12.42ZM153.985 11.48C153.985 10.57 153.525 9.91998 152.675 9.91998C152.283 9.95253 151.918 10.1308 151.651 10.4197C151.385 10.7085 151.236 11.0869 151.235 11.48H153.985Z" fill="white"/>
</svg>
