<svg width="64" height="64" viewBox="0 0 64 64" fill="none" xmlns="http://www.w3.org/2000/svg">
<g filter="url(#filter0_di)">
<rect x="9" y="5" width="46" height="46" rx="23" stroke="#1FEBF3" stroke-width="2"/>
</g>
<path fill-rule="evenodd" clip-rule="evenodd" d="M40.4771 23.6989C40.6956 24.0175 40.6266 24.4616 40.3209 24.6901L33.0787 30.1304C32.7639 30.3684 32.3926 30.4868 32.0224 30.4868C31.6544 30.4868 31.2854 30.3696 30.9706 30.1351L23.6809 24.6913C23.3763 24.4639 23.305 24.0199 23.5224 23.7001C23.7409 23.3804 24.1654 23.3058 24.47 23.5355L31.7586 28.9782C31.916 29.0954 32.1277 29.0966 32.2862 28.977L39.5295 23.5367C39.8341 23.3058 40.2586 23.3816 40.4771 23.6989ZM42.6434 33.9211C42.6434 34.8353 41.9313 35.5801 41.0584 35.5801H22.9444C22.0704 35.5801 21.3594 34.8353 21.3594 33.9211V22.079C21.3594 21.1647 22.0704 20.4211 22.9444 20.4211H41.0584C41.9313 20.4211 42.6434 21.1647 42.6434 22.079V33.9211ZM41.0576 19H22.9435C21.3201 19 20 20.382 20 22.0789V33.9211C20 35.6192 21.3201 37 22.9435 37H41.0576C42.6799 37 44 35.6192 44 33.9211V22.0789C44 20.382 42.6799 19 41.0576 19Z" fill="#1FEBF3"/>
<path d="M40.3209 24.6901L40.1712 24.4899L40.1707 24.4902L40.3209 24.6901ZM33.0787 30.1304L32.9285 29.9305L32.9279 29.931L33.0787 30.1304ZM30.9706 30.1351L30.8211 30.3354L30.8213 30.3356L30.9706 30.1351ZM23.6809 24.6913L23.8305 24.491L23.8304 24.491L23.6809 24.6913ZM23.5224 23.7001L23.316 23.5591L23.3156 23.5596L23.5224 23.7001ZM24.47 23.5355L24.3194 23.7351L24.3204 23.7358L24.47 23.5355ZM31.7586 28.9782L31.609 29.1785L31.6092 29.1786L31.7586 28.9782ZM32.2862 28.977L32.136 28.7771L32.1356 28.7774L32.2862 28.977ZM39.5295 23.5367L39.6797 23.7366L39.6806 23.7359L39.5295 23.5367ZM40.271 23.8404C40.4157 24.0514 40.3665 24.3439 40.1712 24.4899L40.4706 24.8903C40.8867 24.5793 40.9755 23.9836 40.6833 23.5575L40.271 23.8404ZM40.1707 24.4902L32.9285 29.9305L33.2288 30.3303L40.471 24.89L40.1707 24.4902ZM32.9279 29.931C32.6573 30.1356 32.3391 30.2368 32.0224 30.2368V30.7368C32.4461 30.7368 32.8706 30.6012 33.2295 30.3298L32.9279 29.931ZM32.0224 30.2368C31.7078 30.2368 31.3912 30.1367 31.12 29.9346L30.8213 30.3356C31.1796 30.6025 31.6011 30.7368 32.0224 30.7368V30.2368ZM31.1202 29.9348L23.8305 24.491L23.5313 24.8916L30.8211 30.3354L31.1202 29.9348ZM23.8304 24.491C23.6358 24.3457 23.585 24.0526 23.7291 23.8407L23.3156 23.5596C23.025 23.9871 23.1168 24.5822 23.5313 24.8916L23.8304 24.491ZM23.7288 23.8412C23.8695 23.6352 24.1326 23.5942 24.3194 23.7351L24.6205 23.3359C24.1982 23.0174 23.6122 23.1256 23.316 23.5591L23.7288 23.8412ZM24.3204 23.7358L31.609 29.1785L31.9082 28.7778L24.6195 23.3352L24.3204 23.7358ZM31.6092 29.1786C31.8547 29.3615 32.1886 29.3638 32.4368 29.1765L32.1356 28.7774C32.0668 28.8293 31.9773 28.8293 31.908 28.7777L31.6092 29.1786ZM32.4363 29.1769L39.6797 23.7366L39.3794 23.3368L32.136 28.7771L32.4363 29.1769ZM39.6806 23.7359C39.8669 23.5947 40.1302 23.6359 40.2712 23.8407L40.683 23.5572C40.3871 23.1273 39.8013 23.0169 39.3785 23.3375L39.6806 23.7359ZM42.3934 33.9211C42.3934 34.708 41.7826 35.3301 41.0584 35.3301V35.8301C42.0799 35.8301 42.8934 34.9625 42.8934 33.9211H42.3934ZM41.0584 35.3301H22.9444V35.8301H41.0584V35.3301ZM22.9444 35.3301C22.2191 35.3301 21.6094 34.7081 21.6094 33.9211H21.1094C21.1094 34.9624 21.9216 35.8301 22.9444 35.8301V35.3301ZM21.6094 33.9211V22.079H21.1094V33.9211H21.6094ZM21.6094 22.079C21.6094 21.2921 22.2189 20.6711 22.9444 20.6711V20.1711C21.9218 20.1711 21.1094 21.0374 21.1094 22.079H21.6094ZM22.9444 20.6711H41.0584V20.1711H22.9444V20.6711ZM41.0584 20.6711C41.7829 20.6711 42.3934 21.2922 42.3934 22.079H42.8934C42.8934 21.0373 42.0797 20.1711 41.0584 20.1711V20.6711ZM42.3934 22.079V33.9211H42.8934V22.079H42.3934ZM41.0576 18.75H22.9435V19.25H41.0576V18.75ZM22.9435 18.75C21.1715 18.75 19.75 20.2547 19.75 22.0789H20.25C20.25 20.5093 21.4687 19.25 22.9435 19.25V18.75ZM19.75 22.0789V33.9211H20.25V22.0789H19.75ZM19.75 33.9211C19.75 35.7466 21.1715 37.25 22.9435 37.25V36.75C21.4686 36.75 20.25 35.4919 20.25 33.9211H19.75ZM22.9435 37.25H41.0576V36.75H22.9435V37.25ZM41.0576 37.25C42.8285 37.25 44.25 35.7465 44.25 33.9211H43.75C43.75 35.4919 42.5313 36.75 41.0576 36.75V37.25ZM44.25 33.9211V22.0789H43.75V33.9211H44.25ZM44.25 22.0789C44.25 20.2547 42.8286 18.75 41.0576 18.75V19.25C42.5313 19.25 43.75 20.5092 43.75 22.0789H44.25Z" fill="#1FEBF3"/>
<defs>
<filter id="filter0_di" x="0" y="0" width="64" height="64" filterUnits="userSpaceOnUse" color-interpolation-filters="sRGB">
<feFlood flood-opacity="0" result="BackgroundImageFix"/>
<feColorMatrix in="SourceAlpha" type="matrix" values="0 0 0 0 0 0 0 0 0 0 0 0 0 0 0 0 0 0 127 0"/>
<feOffset dy="4"/>
<feGaussianBlur stdDeviation="4"/>
<feColorMatrix type="matrix" values="0 0 0 0 0 0 0 0 0 0 0 0 0 0 0 0 0 0 0.25 0"/>
<feBlend mode="normal" in2="BackgroundImageFix" result="effect1_dropShadow"/>
<feBlend mode="normal" in="SourceGraphic" in2="effect1_dropShadow" result="shape"/>
<feColorMatrix in="SourceAlpha" type="matrix" values="0 0 0 0 0 0 0 0 0 0 0 0 0 0 0 0 0 0 127 0" result="hardAlpha"/>
<feOffset dy="1"/>
<feComposite in2="hardAlpha" operator="arithmetic" k2="-1" k3="1"/>
<feColorMatrix type="matrix" values="0 0 0 0 1 0 0 0 0 1 0 0 0 0 1 0 0 0 0.15 0"/>
<feBlend mode="normal" in2="shape" result="effect2_innerShadow"/>
</filter>
</defs>
</svg>
