<svg width="176" height="48" viewBox="0 0 176 48" fill="none" xmlns="http://www.w3.org/2000/svg">
<path d="M176 41.51C176 42.3623 175.799 43.2062 175.407 43.9936C175.016 44.781 174.443 45.4965 173.72 46.0991C172.997 46.7018 172.139 47.1798 171.195 47.506C170.25 47.8321 169.238 48 168.216 48H7.78419C6.76152 48.0013 5.7486 47.8343 4.80347 47.5087C3.85835 47.183 2.99961 46.705 2.27647 46.1021C1.55334 45.4991 0.980025 44.7832 0.589396 43.9952C0.198768 43.2072 -0.00149607 42.3626 8.33428e-05 41.51V6.51001C-0.00466184 5.65568 0.193265 4.809 0.582476 4.01869C0.971687 3.22838 1.5445 2.51004 2.26795 1.905C2.9914 1.29997 3.85121 0.820176 4.79791 0.493241C5.7446 0.166307 6.7595 -0.00131976 7.78419 7.82436e-06H168.216C169.239 -0.00130901 170.251 0.165661 171.197 0.491347C172.142 0.817034 173 1.29503 173.724 1.89795C174.447 2.50086 175.02 3.21684 175.411 4.00483C175.801 4.79283 176.002 5.63736 176 6.49001V41.49V41.51Z" fill="black"/>
<path d="M23 8.12V40.63L39.4 24.37L23 8.12Z" fill="url(#paint0_linear)"/>
<path d="M43.8 20.01L37.18 16.19L23 8V8.12L39.4 24.37L43.8 20.01Z" fill="url(#paint1_linear)"/>
<path d="M23 40.63V40.74L37.17 32.56L43.79 28.74L39.39 24.37L23 40.63Z" fill="url(#paint2_linear)"/>
<path d="M43.8 20.01L39.4 24.37L43.8 28.74L51.36 24.37L43.8 20.01Z" fill="url(#paint3_linear)"/>
<path d="M126.2 30.73C125.619 30.7344 125.044 30.6187 124.51 30.39C124 30.1568 123.559 29.7949 123.23 29.34H123.13C123.196 29.8607 123.23 30.3851 123.23 30.91V34.8H121.8V21.1H123L123.19 22.4H123.26C123.587 21.9202 124.031 21.5314 124.55 21.27C125.078 21.0338 125.652 20.9177 126.23 20.93C126.781 20.9005 127.331 21.002 127.835 21.2263C128.339 21.4505 128.783 21.7911 129.13 22.22C129.863 23.2712 130.216 24.5412 130.13 25.82C130.224 27.1059 129.871 28.3848 129.13 29.44C128.785 29.8661 128.344 30.205 127.844 30.4291C127.344 30.6532 126.798 30.7563 126.25 30.73H126.2ZM126 22.15C125.613 22.1126 125.224 22.1654 124.861 22.3042C124.498 22.443 124.173 22.6641 123.91 22.95C123.412 23.703 123.176 24.5994 123.24 25.5V25.82C123.152 26.8173 123.387 27.8164 123.91 28.67C124.172 28.9712 124.502 29.2062 124.872 29.3557C125.242 29.5051 125.642 29.5649 126.04 29.53C126.419 29.5401 126.794 29.4536 127.129 29.2786C127.465 29.1036 127.751 28.846 127.96 28.53C128.464 27.7085 128.705 26.7524 128.65 25.79C128.711 24.8366 128.469 23.8882 127.96 23.08C127.732 22.768 127.43 22.5183 127.08 22.3541C126.731 22.1898 126.345 22.1162 125.96 22.14L126 22.15ZM133.45 30.56H132V17.13H133.43L133.45 30.56ZM141.68 30.56L141.4 29.21H141.33C140.96 29.7148 140.477 30.1258 139.92 30.41C139.362 30.638 138.763 30.747 138.16 30.73C137.36 30.7793 136.572 30.5177 135.96 30C135.686 29.7348 135.472 29.4134 135.334 29.0577C135.196 28.7021 135.137 28.3208 135.16 27.94C135.16 26.0333 136.687 25.0333 139.74 24.94H141.34V24.35C141.387 23.7645 141.22 23.1819 140.87 22.71C140.665 22.5186 140.422 22.3725 140.156 22.2811C139.891 22.1898 139.61 22.1554 139.33 22.18C138.398 22.2193 137.486 22.4652 136.66 22.9L136.22 21.81C137.203 21.2777 138.303 20.9993 139.42 21C140.321 20.9279 141.216 21.1954 141.93 21.75C142.225 22.0715 142.449 22.4511 142.589 22.8644C142.728 23.2777 142.78 23.7156 142.74 24.15V30.61L141.68 30.56ZM138.45 29.56C139.22 29.6015 139.976 29.3353 140.55 28.82C140.812 28.5495 141.014 28.2276 141.145 27.8747C141.276 27.5219 141.332 27.1457 141.31 26.77V25.88L139.88 25.94C139.026 25.9101 138.177 26.0922 137.41 26.47C137.165 26.6229 136.966 26.8394 136.834 27.0965C136.701 27.3536 136.642 27.6416 136.66 27.93C136.646 28.1492 136.681 28.3689 136.762 28.573C136.843 28.7771 136.969 28.9605 137.13 29.11C137.507 29.3992 137.975 29.5445 138.45 29.52V29.56ZM143.57 21.11H145.11L147.18 26.5C147.519 27.3702 147.8 28.2622 148.02 29.17H148.09C148.17 28.87 148.32 28.37 148.56 27.66C148.8 26.95 149.56 24.77 150.9 21.11H152.44L148.37 31.88C148.103 32.7301 147.632 33.5023 147 34.13C146.436 34.5881 145.726 34.8261 145 34.8C144.562 34.8001 144.126 34.7497 143.7 34.65V33.51C144.049 33.5763 144.404 33.6098 144.76 33.61C145.246 33.6084 145.718 33.4441 146.101 33.1433C146.483 32.8425 146.754 32.4225 146.87 31.95L147.39 30.61L143.58 21.1L143.57 21.11ZM99.69 21.99C100.142 22.3017 100.507 22.7235 100.751 23.2156C100.995 23.7077 101.109 24.2537 101.083 24.8022C101.057 25.3508 100.891 25.8836 100.602 26.3504C100.313 26.8171 99.9096 27.2025 99.43 27.47C99.2709 27.5864 99.1391 27.7363 99.0441 27.909C98.9491 28.0818 98.8931 28.2733 98.88 28.47C98.8918 28.6419 98.9441 28.8086 99.0328 28.9563C99.1214 29.1041 99.2439 29.2287 99.39 29.32L100.1 29.87C100.583 30.1599 100.987 30.5643 101.276 31.0474C101.566 31.5305 101.732 32.0775 101.76 32.64C101.76 34.5 99.96 36.38 96.56 36.38C93.69 36.38 92.31 35.01 92.31 33.55C92.3296 33.0502 92.4804 32.5644 92.7472 32.1414C93.014 31.7184 93.3875 31.373 93.83 31.14C95.0018 30.5459 96.2963 30.2343 97.61 30.23C97.2487 29.8696 97.0317 29.3894 97 28.88C97.0096 28.613 97.0743 28.3508 97.19 28.11C96.98 28.11 96.76 28.11 96.56 28.11C96.139 28.1302 95.7183 28.0652 95.3231 27.9189C94.9278 27.7725 94.5662 27.5479 94.2599 27.2584C93.9536 26.9689 93.709 26.6205 93.5406 26.2342C93.3722 25.8478 93.2836 25.4314 93.28 25.01C93.2909 24.5043 93.4088 24.0067 93.626 23.55C93.8432 23.0932 94.1547 22.6876 94.54 22.36C95.5581 21.59 96.8152 21.204 98.09 21.27H102.16L100.89 21.98L99.69 21.99ZM98.28 30.77C98.1302 30.7593 97.9798 30.7593 97.83 30.77C97.1254 30.7827 96.4258 30.8903 95.75 31.09C95.2901 31.1979 94.8769 31.4503 94.5709 31.8103C94.265 32.1702 94.0824 32.6187 94.05 33.09C94.05 34.5 95.42 35.51 97.53 35.51C99.43 35.51 100.44 34.6 100.44 33.37C100.44 32.37 99.79 31.83 98.28 30.76V30.77ZM98.86 27.01C99.2066 26.6133 99.3827 26.0958 99.35 25.57C99.35 24.15 98.5 21.93 96.86 21.93C96.5955 21.9339 96.3349 21.9938 96.0953 22.1059C95.8557 22.2179 95.6425 22.3795 95.47 22.58C95.1531 22.9997 94.9874 23.5142 95 24.04C95 25.36 95.77 27.56 97.47 27.56C97.9745 27.5503 98.4568 27.3503 98.82 27L98.86 27.01ZM87.23 30.44C86.6047 30.4615 85.9815 30.3568 85.3975 30.1323C84.8135 29.9077 84.2808 29.5679 83.831 29.133C83.3811 28.6981 83.0235 28.1771 82.7794 27.601C82.5353 27.025 82.4096 26.4057 82.41 25.78C82.4226 25.1265 82.5662 24.4821 82.8321 23.885C83.098 23.2879 83.481 22.7502 83.9583 22.3036C84.4357 21.8571 84.9977 21.5107 85.6111 21.2851C86.2246 21.0595 86.8771 20.9591 87.53 20.99C88.148 20.9766 88.7624 21.0875 89.3366 21.3163C89.9108 21.5451 90.4332 21.887 90.8726 22.3218C91.312 22.7565 91.6595 23.2752 91.8944 23.847C92.1293 24.4187 92.2468 25.0319 92.24 25.65C92.2378 26.2963 92.1054 26.9355 91.8507 27.5295C91.596 28.1235 91.2242 28.66 90.7575 29.1071C90.2908 29.5542 89.7388 29.9026 89.1344 30.1316C88.5301 30.3607 87.8858 30.4655 87.24 30.44H87.23ZM89.7 28.88C90.1282 28.2329 90.3352 27.4646 90.29 26.69C90.29 24.96 89.46 21.64 87.01 21.64C86.3593 21.6469 85.7321 21.8843 85.24 22.31C84.9189 22.6189 84.6706 22.9955 84.5132 23.4123C84.3557 23.8292 84.2932 24.2759 84.33 24.72C84.33 26.67 85.33 29.89 87.68 29.89C88.0678 29.8885 88.4501 29.7974 88.797 29.624C89.1439 29.4505 89.4461 29.1993 89.68 28.89L89.7 28.88ZM76.53 30.48C75.9047 30.5015 75.2815 30.3968 74.6975 30.1723C74.1135 29.9477 73.5808 29.6079 73.131 29.173C72.6811 28.7381 72.3235 28.2171 72.0794 27.641C71.8353 27.065 71.7096 26.4457 71.71 25.82C71.7226 25.1665 71.8662 24.5221 72.1321 23.925C72.3981 23.3279 72.781 22.7902 73.2583 22.3436C73.7357 21.8971 74.2977 21.5507 74.9111 21.3251C75.5246 21.0995 76.1771 20.9991 76.83 21.03C77.448 21.0166 78.0624 21.1275 78.6366 21.3563C79.2108 21.5851 79.7332 21.927 80.1726 22.3618C80.612 22.7965 80.9595 23.3152 81.1944 23.887C81.4293 24.4587 81.5469 25.0719 81.54 25.69C81.5325 26.3338 81.3959 26.9695 81.1382 27.5595C80.8805 28.1495 80.5069 28.6818 80.0397 29.1247C79.5725 29.5677 79.0211 29.9124 78.4182 30.1383C77.8154 30.3642 77.1733 30.4668 76.53 30.44V30.48ZM79 28.88C79.4282 28.2329 79.6352 27.4646 79.59 26.69C79.59 24.96 78.76 21.64 76.31 21.64C75.6593 21.6469 75.0321 21.8843 74.54 22.31C74.2189 22.6189 73.9706 22.9955 73.8132 23.4123C73.6557 23.8292 73.5932 24.2759 73.63 24.72C73.63 26.67 74.63 29.89 76.98 29.89C77.3721 29.8904 77.7588 29.7993 78.1095 29.624C78.4602 29.4486 78.7651 29.1939 79 28.88ZM70.2 30.17L67.37 30.83C66.2872 31.0286 65.1905 31.1423 64.09 31.17C58.61 31.17 56.53 27.17 56.53 23.98C56.53 20.13 59.53 16.56 64.53 16.56C65.5443 16.5648 66.5534 16.7061 67.53 16.98C68.475 17.2158 69.3649 17.6336 70.15 18.21L68.51 19.77L67.81 19.93L68.31 19.14C67.7737 18.546 67.1177 18.0723 66.3852 17.75C65.6527 17.4277 64.8603 17.2641 64.06 17.27C60.92 17.27 58.56 19.66 58.56 23.13C58.5278 24.0692 58.685 25.0054 59.0223 25.8825C59.3597 26.7597 59.8702 27.56 60.5234 28.2356C61.1767 28.9113 61.9593 29.4485 62.8246 29.8152C63.6899 30.1819 64.6202 30.3705 65.56 30.37C66.4521 30.3995 67.3398 30.2322 68.16 29.88V26.68L65.16 26.84L66.75 25.99H71L70.48 26.48C70.4264 26.5166 70.3809 26.564 70.3465 26.619C70.3121 26.6741 70.2894 26.7357 70.28 26.8C70.28 26.98 70.28 27.55 70.28 27.75V30.17H70.2Z" fill="#F7F8F9"/>
<path d="M106 29.56C105.34 29.5 105.21 29.38 105.21 28.61V17.38C105.205 17.3368 105.205 17.2932 105.21 17.25C105.29 16.55 105.49 16.44 106.1 16.08H103.22L101.73 16.79H103.25V29.05C103.25 29.44 103.17 29.5 102.71 30.05H106.23L106.96 29.61L105.96 29.51L106 29.56ZM114.08 29.75C113.86 29.86 113.64 30 113.43 30.1C112.824 30.3604 112.169 30.4866 111.51 30.47C110.577 30.5115 109.656 30.2444 108.89 29.71C108.254 29.2222 107.741 28.5914 107.394 27.8687C107.046 27.146 106.874 26.3517 106.89 25.55C106.878 24.9521 106.986 24.3578 107.208 23.8024C107.429 23.247 107.76 22.7417 108.181 22.3165C108.601 21.8913 109.103 21.5548 109.656 21.327C110.209 21.0991 110.802 20.9845 111.4 20.99C112.105 20.9899 112.797 21.1837 113.4 21.55C114.089 22.0009 114.58 22.6987 114.77 23.5L110.14 25.37L108.63 25.49C109.12 27.99 110.81 29.49 112.69 29.49C113.535 29.4608 114.359 29.2238 115.09 28.8L114.09 29.8L114.08 29.75ZM112.17 23.88C112.55 23.74 112.74 23.62 112.74 23.35C112.669 22.8816 112.434 22.4536 112.077 22.1423C111.72 21.831 111.264 21.6565 110.79 21.65C110.458 21.6705 110.133 21.7591 109.836 21.9104C109.539 22.0616 109.277 22.2723 109.065 22.5292C108.853 22.7861 108.696 23.0839 108.604 23.404C108.512 23.7241 108.487 24.0597 108.53 24.39C108.53 24.73 108.53 25.08 108.59 25.44L112.17 23.88ZM115.93 21.14V22.44H115.77V21.14H115.34V21H116.34V21.14H115.93ZM117.7 22.44V21.12L117.3 22.43H117.18L116.78 21.12V22.43H116.64V20.99H116.88L117.25 22.15L117.61 20.99H117.86V22.43L117.7 22.44Z" fill="#F7F8F9"/>
<path d="M60.47 12.66H59.47C59.4079 12.2655 59.3109 11.8773 59.18 11.5H57.78C57.6457 11.8763 57.5486 12.2648 57.49 12.66H56.56C56.7652 11.9813 57.0055 11.3138 57.28 10.66C57.567 10.0112 57.8076 9.34286 58 8.66001H59.17C59.3405 9.34079 59.5577 10.009 59.82 10.66C60.0752 11.3135 60.2923 11.9813 60.47 12.66ZM59.05 10.88C58.7 9.82001 58.52 9.25001 58.52 9.16001H58.47C58.3194 9.74217 58.1392 10.3163 57.93 10.88H59.05ZM64.45 12.63H63.68C63.4487 12.1546 63.1671 11.7054 62.84 11.29C62.4292 10.7581 62.0928 10.1727 61.84 9.55001C61.8857 9.95508 61.9091 10.3624 61.91 10.77C61.91 11.28 61.91 11.9 61.91 12.63H61.15C61.15 11.99 61.15 11.29 61.15 10.53C61.15 9.77001 61.15 9.14001 61.15 8.61001H62.06C62.2588 9.07819 62.5177 9.51855 62.83 9.92001C63.2083 10.425 63.5208 10.9761 63.76 11.56C63.7145 11.1516 63.6911 10.741 63.69 10.33C63.69 9.77001 63.69 9.20001 63.69 8.61001H64.47C64.47 9.12001 64.42 9.76001 64.42 10.53C64.42 11.3 64.42 12.03 64.45 12.66V12.63ZM68.91 10.48C68.9153 11.0411 68.7163 11.5849 68.35 12.01C68.1521 12.227 67.9088 12.3977 67.6375 12.51C67.3661 12.6224 67.0734 12.6736 66.78 12.66C66.48 12.66 66.06 12.66 65.52 12.66C65.52 12.04 65.52 11.34 65.52 10.57C65.52 9.80001 65.52 9.18001 65.52 8.65001H66.8C67.0927 8.6237 67.3877 8.66003 67.6653 8.75659C67.9429 8.85315 68.1968 9.00771 68.41 9.21001C68.7442 9.57086 68.9237 10.0483 68.91 10.54V10.48ZM68.07 10.61C68.0845 10.2461 67.9633 9.88971 67.73 9.61001C67.5946 9.4676 67.4293 9.35697 67.246 9.28608C67.0627 9.21519 66.866 9.18579 66.67 9.20001H66.31C66.31 9.61334 66.31 10.0433 66.31 10.49C66.31 10.98 66.31 11.49 66.31 11.95C66.4431 11.9599 66.5768 11.9599 66.71 11.95C66.8974 11.9671 67.0861 11.9388 67.2602 11.8674C67.4343 11.796 67.5886 11.6837 67.71 11.54C67.9247 11.2514 68.0373 10.8996 68.03 10.54L68.07 10.61ZM73.07 12.61H72.16C72.0322 12.1393 71.8475 11.686 71.61 11.26C71.5356 11.1695 71.4403 11.0985 71.3322 11.0532C71.2242 11.0079 71.1067 10.9896 70.99 11H70.65C70.65 11.52 70.65 12.06 70.65 12.6H69.79C69.79 11.97 69.79 11.27 69.79 10.5C69.79 9.73001 69.79 9.11001 69.79 8.58001H71.26C72.2 8.58001 72.67 8.91001 72.67 9.58001C72.6737 9.82315 72.596 10.0606 72.4492 10.2544C72.3024 10.4483 72.095 10.5876 71.86 10.65V10.7C72.0973 10.785 72.2937 10.9564 72.41 11.18C72.6457 11.6569 72.843 12.1518 73 12.66L73.07 12.61ZM71.92 9.77001C71.92 9.36001 71.65 9.16001 71.13 9.16001C70.9571 9.14315 70.7829 9.14315 70.61 9.16001C70.61 9.48001 70.61 9.89001 70.61 10.4H70.9C71.55 10.5 71.88 10.27 71.88 9.82001L71.92 9.77001ZM77.49 10.52C77.5015 10.807 77.4562 11.0935 77.3567 11.3629C77.2571 11.6323 77.1053 11.8794 76.91 12.09C76.7308 12.2914 76.5103 12.4519 76.2636 12.5606C76.0168 12.6693 75.7496 12.7237 75.48 12.72C75.2235 12.7266 74.9686 12.6782 74.7323 12.5782C74.496 12.4781 74.2838 12.3287 74.11 12.14C73.9282 11.9463 73.7868 11.7183 73.6941 11.4693C73.6014 11.2204 73.5592 10.9554 73.57 10.69C73.5515 10.1129 73.7556 9.55082 74.14 9.12001C74.3225 8.92067 74.5452 8.76232 74.7934 8.65545C75.0417 8.54857 75.3098 8.49559 75.58 8.50001C75.8339 8.49487 76.0861 8.54293 76.3203 8.6411C76.5545 8.73927 76.7656 8.88537 76.94 9.07001C77.1236 9.26291 77.2668 9.49053 77.3613 9.73953C77.4557 9.98852 77.4995 10.2539 77.49 10.52ZM76.64 10.61C76.6476 10.2487 76.5311 9.8958 76.31 9.61001C76.2148 9.48307 76.0909 9.38059 75.9483 9.31104C75.8057 9.24149 75.6486 9.20686 75.49 9.21001C75.3405 9.21068 75.1934 9.24739 75.0611 9.31702C74.9288 9.38665 74.8152 9.48715 74.73 9.61001C74.5181 9.89949 74.409 10.2514 74.42 10.61C74.4032 10.9879 74.5201 11.3596 74.75 11.66C74.8442 11.7856 74.9665 11.8872 75.1073 11.9567C75.248 12.0262 75.4031 12.0616 75.56 12.06C75.7102 12.0574 75.8576 12.0188 75.9899 11.9474C76.1221 11.8761 76.2353 11.7741 76.32 11.65C76.5354 11.3618 76.6481 11.0097 76.64 10.65V10.61ZM79.23 12.61H78.36C78.36 11.97 78.36 11.27 78.36 10.51C78.36 9.75001 78.36 9.12001 78.36 8.59001H79.23C79.23 9.11001 79.23 9.75001 79.23 10.51C79.23 11.27 79.16 12.03 79.19 12.66L79.23 12.61ZM83.7 10.46C83.7053 11.0211 83.5063 11.5649 83.14 11.99C82.9421 12.207 82.6988 12.3777 82.4275 12.49C82.1561 12.6024 81.8634 12.6536 81.57 12.64C81.26 12.64 80.84 12.64 80.31 12.64C80.31 12.02 80.31 11.32 80.31 10.55C80.31 9.78001 80.31 9.16001 80.31 8.63001H81.58C81.8743 8.60354 82.1708 8.63976 82.45 8.73629C82.7293 8.83282 82.9849 8.98746 83.2 9.19001C83.5297 9.55363 83.7085 10.0292 83.7 10.52V10.46ZM82.86 10.59C82.8707 10.2249 82.7461 9.86873 82.51 9.59001C82.3821 9.45446 82.2267 9.34778 82.0542 9.27707C81.8818 9.20637 81.6963 9.17328 81.51 9.18001H81.14C81.14 9.59334 81.14 10.0233 81.14 10.47C81.14 10.96 81.14 11.47 81.14 11.93C81.2731 11.9404 81.4069 11.9404 81.54 11.93C81.7273 11.9463 81.9158 11.9175 82.0897 11.8462C82.2636 11.7749 82.418 11.6631 82.54 11.52C82.7167 11.2601 82.814 10.9543 82.82 10.64L82.86 10.59ZM89.62 12.59H88.62C88.5583 12.1964 88.4647 11.8084 88.34 11.43H86.89C86.7557 11.8063 86.6586 12.1948 86.6 12.59H85.68C85.8852 11.9113 86.1255 11.2438 86.4 10.59C86.6869 9.94226 86.9243 9.27368 87.11 8.59001H88.28C88.4561 9.26918 88.6732 9.93707 88.93 10.59C89.1907 11.2416 89.4078 11.9097 89.58 12.59H89.62ZM88.16 10.88C87.81 9.82001 87.63 9.25001 87.63 9.16001C87.4499 9.74387 87.2397 10.318 87 10.88H88.16ZM93.16 9.66001C93.1753 9.87443 93.1323 10.089 93.0354 10.2809C92.9386 10.4728 92.7916 10.6349 92.61 10.75C92.2081 10.9975 91.7415 11.1194 91.27 11.1H91.06C91.06 11.48 91.06 11.99 91.06 12.63H90.19C90.19 12.03 90.19 11.33 90.19 10.53C90.19 9.73001 90.19 9.15001 90.19 8.61001H91.73C92.0834 8.59312 92.4331 8.68756 92.73 8.88001C92.8625 8.96571 92.9701 9.08474 93.042 9.22515C93.114 9.36556 93.1478 9.52242 93.14 9.68001L93.16 9.66001ZM92.36 9.83001C92.36 9.39001 92.07 9.17001 91.49 9.17001C91.337 9.15581 91.183 9.15581 91.03 9.17001C91.03 9.56334 91.03 10.0033 91.03 10.49H91.21C92 10.57 92.38 10.34 92.38 9.88001L92.36 9.83001ZM96.85 9.66001C96.8642 9.87319 96.8218 10.0863 96.7269 10.2778C96.6321 10.4692 96.4882 10.6322 96.31 10.75C95.9077 10.9964 95.4414 11.1182 94.97 11.1H94.76C94.76 11.48 94.76 11.99 94.76 12.63H94C94 12.03 94 11.33 94 10.53C94 9.73001 94 9.15001 94 8.61001H95.53C95.883 8.5964 96.2318 8.69058 96.53 8.88001C96.6613 8.96619 96.7675 9.0856 96.8378 9.22611C96.9081 9.36662 96.9399 9.52322 96.93 9.68001L96.85 9.66001ZM96.06 9.83001C96.06 9.39001 95.77 9.17001 95.18 9.17001C95.027 9.15631 94.873 9.15631 94.72 9.17001C94.72 9.56001 94.72 10 94.72 10.49H95C95.71 10.57 96.08 10.34 96.08 9.88001L96.06 9.83001ZM102.9 10.54C102.912 10.827 102.866 11.1135 102.767 11.3829C102.667 11.6523 102.515 11.8994 102.32 12.11C102.141 12.3114 101.92 12.4719 101.674 12.5806C101.427 12.6893 101.16 12.7437 100.89 12.74C100.633 12.7466 100.379 12.6982 100.142 12.5982C99.906 12.4981 99.6938 12.3487 99.52 12.16C99.1675 11.773 98.9808 11.2632 99 10.74C98.9815 10.1629 99.1856 9.60082 99.57 9.17001C99.7514 8.97193 99.9725 8.81434 100.219 8.7075C100.465 8.60067 100.731 8.547 101 8.55001C101.254 8.54487 101.506 8.59293 101.74 8.6911C101.975 8.78927 102.186 8.93537 102.36 9.12001C102.544 9.31291 102.687 9.54053 102.781 9.78953C102.876 10.0385 102.919 10.3039 102.91 10.57L102.9 10.54ZM102.05 10.63C102.058 10.2687 101.941 9.9158 101.72 9.63001C101.625 9.50307 101.501 9.40059 101.358 9.33104C101.216 9.26149 101.059 9.22686 100.9 9.23001C100.75 9.23068 100.603 9.26739 100.471 9.33702C100.339 9.40665 100.225 9.50715 100.14 9.63001C99.9281 9.9195 99.819 10.2714 99.83 10.63C99.8132 11.0079 99.9301 11.3796 100.16 11.68C100.254 11.8056 100.377 11.9072 100.517 11.9767C100.658 12.0462 100.813 12.0816 100.97 12.08C101.12 12.0774 101.268 12.0388 101.4 11.9674C101.532 11.8961 101.645 11.7941 101.73 11.67C101.945 11.3818 102.058 11.0297 102.05 10.67V10.63ZM107.05 12.63H106.28C106.049 12.1546 105.767 11.7054 105.44 11.29C105.029 10.7581 104.693 10.1727 104.44 9.55001C104.486 9.95508 104.509 10.3624 104.51 10.77C104.51 11.28 104.51 11.9 104.51 12.63H103.75C103.75 11.99 103.75 11.29 103.75 10.53C103.75 9.77001 103.75 9.14001 103.75 8.61001H104.66C104.859 9.07819 105.118 9.51855 105.43 9.92001C105.808 10.425 106.121 10.9761 106.36 11.56C106.315 11.1516 106.291 10.741 106.29 10.33C106.29 9.77001 106.29 9.20001 106.24 8.61001H107.02C107.02 9.12001 107.02 9.76001 107.02 10.53C107.02 11.3 107.07 12.03 107.1 12.66L107.05 12.63Z" fill="#F7F9FA"/>
<defs>
<linearGradient id="paint0_linear" x1="31.25" y1="8.15" x2="31.25" y2="40.67" gradientUnits="userSpaceOnUse">
<stop stop-color="#287CAF"/>
<stop offset="0.29" stop-color="#4A92B4"/>
<stop offset="0.77" stop-color="#79BCBA"/>
<stop offset="1" stop-color="#88CEBC"/>
</linearGradient>
<linearGradient id="paint1_linear" x1="22.97" y1="16.19" x2="43.85" y2="16.19" gradientUnits="userSpaceOnUse">
<stop stop-color="#52C0AC"/>
<stop offset="1" stop-color="#DDE799"/>
</linearGradient>
<linearGradient id="paint2_linear" x1="33.41" y1="24.35" x2="33.41" y2="40.79" gradientUnits="userSpaceOnUse">
<stop stop-color="#EB413D"/>
<stop offset="0.17" stop-color="#D94452"/>
<stop offset="0.57" stop-color="#AF487B"/>
<stop offset="0.86" stop-color="#954B92"/>
<stop offset="1" stop-color="#894A9C"/>
</linearGradient>
<linearGradient id="paint3_linear" x1="45.41" y1="20.03" x2="45.41" y2="28.79" gradientUnits="userSpaceOnUse">
<stop stop-color="#F4887A"/>
<stop offset="0.12" stop-color="#F5907A"/>
<stop offset="0.71" stop-color="#FBB777"/>
<stop offset="1" stop-color="#FDC874"/>
</linearGradient>
</defs>
</svg>
