<svg width="32" height="32" viewBox="0 0 32 32" fill="none" xmlns="http://www.w3.org/2000/svg">
<path d="M31.5714 0.620417C31.2336 0.22575 30.7412 0 30.2221 0H1.77757C1.25849 0 0.766069 0.22575 0.428236 0.620417C0.0904859 1.01333 -0.0588474 1.53775 0.0211526 2.048L3.57674 25.1591C3.66382 25.7297 4.02299 26.2204 4.53849 26.4764L15.2052 31.8098C15.4541 31.9378 15.7278 32 15.9998 32C16.2718 32 16.5456 31.9378 16.7945 31.8116L27.4612 26.4783C27.9767 26.2223 28.3358 25.7316 28.4229 25.1609L31.9785 2.04983C32.0585 1.53775 31.9092 1.01333 31.5714 0.620417ZM25.0487 23.7103L15.9998 28.2347L6.9509 23.7103L3.85049 3.55558H28.1509L25.0487 23.7103Z" fill="#fff"/>
<path d="M9.27812 16H19.0559L18.167 19.5556H13.8327L13.3883 17.7778H9.72254L10.7199 21.7654C10.9172 22.5565 11.6283 23.1112 12.4443 23.1112H19.5554C20.3714 23.1112 21.0825 22.5548 21.2798 21.7654L23.0575 14.6543C23.1909 14.1228 23.07 13.561 22.734 13.129C22.398 12.7006 21.8806 12.4446 21.333 12.4446H12.055L11.166 8.889H23.8914L24.7803 5.33334H8.88879C8.3412 5.33334 7.82387 5.58934 7.48787 6.01775C7.15012 6.44975 7.03095 7.0115 7.16429 7.54309L9.27812 16Z" fill="#fff"/>
</svg>
