<svg width="76" height="48" viewBox="0 0 76 48" fill="none" xmlns="http://www.w3.org/2000/svg">
<path d="M37.8374 5C17.5459 5 1.30711 22.1694 0.0781764 23.5009H0L0.0375247 23.5442L0 23.5845H0.0781764C1.30711 24.9159 17.5459 42.0853 37.8499 42.0853C59.7549 42.0853 76 23.4327 76 23.4327C76 23.4327 59.7549 5 37.8374 5ZM49.814 24.6775L35.4108 32.9138C35.18 33.0458 34.9182 33.1153 34.6516 33.1155C34.3851 33.1156 34.1232 33.0463 33.8922 32.9145C33.6613 32.7828 33.4694 32.5932 33.3358 32.3648C33.2022 32.1364 33.1317 31.8773 33.1312 31.6134V15.119C33.1317 14.855 33.2022 14.5959 33.3358 14.3675C33.4694 14.1391 33.6613 13.9495 33.8922 13.8178C34.1232 13.686 34.3851 13.6167 34.6516 13.6169C34.9182 13.617 35.18 13.6865 35.4108 13.8185L49.814 22.0641C50.0467 22.1957 50.2401 22.3859 50.3746 22.6154C50.5091 22.8449 50.58 23.1055 50.58 23.3708C50.58 23.6361 50.5091 23.8967 50.3746 24.1262C50.2401 24.3557 50.0467 24.5459 49.814 24.6775Z" fill="white"/>
<path d="M65.5492 4.52697H69.8614V9.54619C69.8614 9.7244 69.9329 9.8953 70.0602 10.0213C70.1874 10.1473 70.36 10.2181 70.54 10.2181H73.7546C73.9329 10.2157 74.1031 10.1438 74.2284 10.0181C74.3536 9.89231 74.4238 9.7228 74.4238 9.54619V0.671978C74.4238 0.495373 74.3536 0.325862 74.2284 0.200117C74.1031 0.0743729 73.9329 0.00250576 73.7546 6.42186e-05H64.7924C64.7025 -0.00116653 64.6133 0.0153043 64.5299 0.0485196C64.4465 0.081735 64.3706 0.131033 64.3065 0.193549C64.2425 0.256065 64.1917 0.330552 64.157 0.412684C64.1223 0.494816 64.1045 0.582954 64.1045 0.671978V3.85505C64.1045 4.03326 64.176 4.20416 64.3032 4.33017C64.4305 4.45618 64.6031 4.52697 64.7831 4.52697H65.5492Z" fill="white"/>
<path d="M10.884 43.3833H6.57176V38.2371C6.57176 38.0613 6.50125 37.8928 6.37576 37.7685C6.25026 37.6443 6.08005 37.5745 5.90257 37.5745H2.66919C2.49171 37.5745 2.3215 37.6443 2.196 37.7685C2.0705 37.8928 2 38.0613 2 38.2371V47.3373C2 47.5131 2.0705 47.6816 2.196 47.8059C2.25814 47.8674 2.33191 47.9162 2.4131 47.9495C2.49429 47.9828 2.58131 48 2.66919 48H11.6501C11.8276 48 11.9978 47.9302 12.1233 47.8059C12.2488 47.6816 12.3193 47.5131 12.3193 47.3373V44.0397C12.3193 43.864 12.2488 43.6954 12.1233 43.5712C11.9978 43.4469 11.8276 43.3771 11.6501 43.3771L10.884 43.3833Z" fill="white"/>
</svg>
