<svg width="26" height="26" viewBox="0 0 26 26" fill="none" xmlns="http://www.w3.org/2000/svg">
<path fill-rule="evenodd" clip-rule="evenodd" d="M14.8426 23.2785C14.7381 23.5399 14.5088 23.5719 14.4149 23.5743C14.3033 23.5613 14.0894 23.5517 13.9753 23.2975L10.7699 16.2356L22.3227 4.68404L14.8426 23.2785ZM2.7017 12.0239C2.44508 11.9087 2.42251 11.6782 2.42488 11.5843C2.42726 11.4905 2.45934 11.2612 2.72071 11.1566L21.3152 3.67656L9.76358 15.2293L2.7017 12.0239ZM24.9472 1.44893L24.9449 1.4418C24.9354 1.42161 24.927 1.40141 24.9163 1.38121C24.9068 1.36339 24.895 1.34319 24.8819 1.32418C24.8807 1.32181 24.8783 1.31824 24.8759 1.31587C24.8664 1.30042 24.8558 1.28498 24.8439 1.27191C24.8403 1.26835 24.8367 1.26359 24.8332 1.25884C24.8189 1.24221 24.8059 1.22557 24.7892 1.21013C24.7726 1.1935 24.756 1.17805 24.7393 1.16498C24.7358 1.16261 24.7322 1.15904 24.7286 1.15667C24.7144 1.1436 24.6977 1.13172 24.6799 1.12102C24.6787 1.11984 24.6775 1.11865 24.6752 1.11746C24.4827 0.990337 24.238 0.963012 24.0205 1.05212L2.18979 9.83431C1.4722 10.1218 1.01598 10.78 1.00054 11.5534C0.982716 12.3257 1.40923 13.0041 2.11257 13.3237L9.37879 16.6206L12.6757 23.8868C12.9881 24.577 13.6475 25 14.4019 25C14.4174 25 14.4316 25 14.4459 24.9988C15.2181 24.9834 15.8775 24.5271 16.165 23.8096L24.9472 1.97881C24.9555 1.95861 24.9627 1.93842 24.9674 1.91822C24.9686 1.91703 24.9686 1.91584 24.9686 1.91465C24.9757 1.89327 24.9805 1.8707 24.9853 1.8505V1.84931C25.0126 1.71506 24.9983 1.57487 24.9472 1.44893Z" fill="#1FEBF3"/>
<path d="M14.8426 23.2785L14.6107 23.1852L14.6105 23.1856L14.8426 23.2785ZM14.4149 23.5743L14.3859 23.8226L14.4035 23.8247L14.4213 23.8242L14.4149 23.5743ZM13.9753 23.2975L14.2034 23.1952L14.203 23.1942L13.9753 23.2975ZM10.7699 16.2356L10.5932 16.0588L10.4707 16.1813L10.5423 16.339L10.7699 16.2356ZM22.3227 4.68404L22.5546 4.77734L22.1459 4.50726L22.3227 4.68404ZM2.7017 12.0239L2.80503 11.7963L2.80412 11.7959L2.7017 12.0239ZM2.72071 11.1566L2.81356 11.3888L2.81402 11.3886L2.72071 11.1566ZM21.3152 3.67656L21.4919 3.85332L21.2219 3.44462L21.3152 3.67656ZM9.76358 15.2293L9.66025 15.457L9.81793 15.5285L9.94036 15.4061L9.76358 15.2293ZM24.9449 1.4418L25.182 1.36274L25.1774 1.34872L25.1711 1.33535L24.9449 1.4418ZM24.9163 1.38121L25.1373 1.26424L25.1369 1.26356L24.9163 1.38121ZM24.8819 1.32418L24.6583 1.43599L24.666 1.45151L24.6759 1.46582L24.8819 1.32418ZM24.8759 1.31587L24.663 1.44689L24.6784 1.47189L24.6992 1.49264L24.8759 1.31587ZM24.8439 1.27191L25.0291 1.10355L25.0206 1.09513L24.8439 1.27191ZM24.8332 1.25884L25.0332 1.10884L25.0283 1.10233L25.023 1.09614L24.8332 1.25884ZM24.7892 1.21013L24.6123 1.38703L24.6191 1.39333L24.7892 1.21013ZM24.7393 1.16498L24.8938 0.968404L24.8861 0.96238L24.878 0.956971L24.7393 1.16498ZM24.7286 1.15667L24.5597 1.34096L24.5739 1.35398L24.59 1.36468L24.7286 1.15667ZM24.6799 1.12102L24.5031 1.2978L24.5249 1.31956L24.5513 1.3354L24.6799 1.12102ZM24.6752 1.11746L24.5374 1.32607L24.5499 1.33435L24.5634 1.34107L24.6752 1.11746ZM24.0205 1.05212L24.1138 1.28406L24.1153 1.28344L24.0205 1.05212ZM2.18979 9.83431L2.28277 10.0664L2.2831 10.0662L2.18979 9.83431ZM1.00054 11.5534L1.25047 11.5592L1.25049 11.5584L1.00054 11.5534ZM2.11257 13.3237L2.00915 13.5513L2.00927 13.5513L2.11257 13.3237ZM9.37879 16.6206L9.60645 16.5173L9.56764 16.4317L9.48209 16.3929L9.37879 16.6206ZM12.6757 23.8868L12.9034 23.7837L12.9033 23.7835L12.6757 23.8868ZM14.4459 24.9988L14.4409 24.7489L14.433 24.749L14.4251 24.7497L14.4459 24.9988ZM16.165 23.8096L15.9331 23.7162L15.933 23.7166L16.165 23.8096ZM24.9472 1.97881L24.7161 1.88362L24.7153 1.88551L24.9472 1.97881ZM24.9674 1.91822L24.7907 1.74144L24.7404 1.79173L24.7241 1.86096L24.9674 1.91822ZM24.9686 1.91465L24.7314 1.8356L24.7186 1.87408V1.91465H24.9686ZM24.9853 1.8505L25.2286 1.90776L25.2353 1.87951V1.8505H24.9853ZM24.9853 1.84931L24.7403 1.79945L24.7353 1.82413V1.84931H24.9853ZM14.6105 23.1856C14.5828 23.255 14.5449 23.284 14.5131 23.2998C14.4755 23.3186 14.4348 23.3237 14.4086 23.3244L14.4213 23.8242C14.5511 23.821 14.9141 23.7731 15.0748 23.3713L14.6105 23.1856ZM14.444 23.326C14.3746 23.3179 14.3362 23.3148 14.2964 23.2974C14.2686 23.2852 14.2338 23.2628 14.2034 23.1952L13.7472 23.3998C13.8309 23.5864 13.9601 23.6959 14.0957 23.7553C14.2192 23.8094 14.3436 23.8177 14.3859 23.8226L14.444 23.326ZM14.203 23.1942L10.9976 16.1323L10.5423 16.339L13.7477 23.4008L14.203 23.1942ZM10.9467 16.4124L22.4995 4.86083L22.1459 4.50726L10.5932 16.0588L10.9467 16.4124ZM22.0908 4.59074L14.6107 23.1852L15.0746 23.3718L22.5546 4.77734L22.0908 4.59074ZM2.80412 11.7959C2.73611 11.7653 2.70879 11.7263 2.69442 11.6941C2.67735 11.6559 2.67418 11.6154 2.6748 11.5907L2.17496 11.578C2.17162 11.7101 2.20474 12.0748 2.59929 12.252L2.80412 11.7959ZM2.6748 11.5907C2.67547 11.5644 2.68058 11.5238 2.69936 11.4861C2.71519 11.4544 2.74422 11.4165 2.81356 11.3888L2.62787 10.9245C2.2261 11.0852 2.17825 11.4482 2.17496 11.578L2.6748 11.5907ZM2.81402 11.3886L21.4085 3.90849L21.2219 3.44462L2.62741 10.9247L2.81402 11.3886ZM21.1384 3.49979L9.58679 15.0526L9.94036 15.4061L21.4919 3.85332L21.1384 3.49979ZM9.86691 15.0017L2.80503 11.7963L2.59837 12.2516L9.66025 15.457L9.86691 15.0017ZM25.1844 1.36987L25.182 1.36274L24.7077 1.52087L24.7101 1.528L25.1844 1.36987ZM25.1711 1.33535C25.1688 1.33049 25.1512 1.29045 25.1373 1.26424L24.6954 1.49818C24.7029 1.51237 24.7019 1.51272 24.7187 1.54825L25.1711 1.33535ZM25.1369 1.26356C25.124 1.23925 25.1073 1.21077 25.0879 1.18255L24.6759 1.46582C24.6826 1.47562 24.6897 1.48753 24.6958 1.49886L25.1369 1.26356ZM25.1055 1.21238C25.0945 1.19034 25.0773 1.16364 25.0527 1.13909L24.6992 1.49264C24.6871 1.48053 24.679 1.46975 24.6745 1.46338C24.67 1.45685 24.6642 1.44777 24.6583 1.43599L25.1055 1.21238ZM25.0889 1.18484C25.0753 1.16274 25.0553 1.13286 25.0289 1.10374L24.6589 1.44008C24.6571 1.43815 24.6568 1.43758 24.6579 1.43907C24.6589 1.4405 24.6606 1.443 24.663 1.44689L25.0889 1.18484ZM25.0206 1.09513C25.0246 1.09906 25.0276 1.10238 25.0296 1.10465C25.0316 1.10695 25.033 1.10872 25.0337 1.10965C25.0345 1.11058 25.0349 1.1111 25.0347 1.11088C25.0345 1.11059 25.0342 1.11016 25.0332 1.10884L24.6332 1.40884C24.6337 1.40947 24.6484 1.43 24.6671 1.44869L25.0206 1.09513ZM25.023 1.09614C25.0174 1.08958 24.9897 1.05514 24.9593 1.02693L24.6191 1.39333C24.6186 1.3929 24.6197 1.39384 24.6237 1.39842C24.6258 1.40079 24.6281 1.40352 24.6315 1.40753C24.6345 1.41108 24.6389 1.41637 24.6434 1.42154L25.023 1.09614ZM24.966 1.03335C24.9457 1.01309 24.9213 0.990017 24.8938 0.968404L24.5849 1.36156C24.5906 1.36609 24.5994 1.3739 24.6124 1.38691L24.966 1.03335ZM24.878 0.956971C24.8848 0.961484 24.8897 0.965301 24.8918 0.967006C24.8938 0.968583 24.8954 0.96988 24.894 0.968772C24.8936 0.968395 24.8903 0.965612 24.8865 0.962625C24.8825 0.95951 24.8759 0.954356 24.8673 0.948654L24.59 1.36468C24.5832 1.36017 24.5783 1.35635 24.5761 1.35464C24.5741 1.35307 24.5726 1.35177 24.5739 1.35288C24.5744 1.35326 24.5777 1.35604 24.5815 1.35903C24.5854 1.36214 24.5921 1.36729 24.6006 1.373L24.878 0.956971ZM24.8976 0.972378C24.868 0.945317 24.837 0.923723 24.8085 0.906652L24.5513 1.3354C24.5585 1.33971 24.5607 1.34188 24.5597 1.34096L24.8976 0.972378ZM24.8567 0.944248C24.8503 0.937878 24.8262 0.913459 24.787 0.893854L24.5634 1.34107C24.5488 1.33377 24.5348 1.32485 24.5218 1.31447C24.5103 1.30526 24.5018 1.2965 24.5031 1.2978L24.8567 0.944248ZM24.8129 0.908856C24.5532 0.737264 24.2215 0.699573 23.9257 0.820791L24.1153 1.28344C24.2544 1.22645 24.4122 1.24341 24.5374 1.32607L24.8129 0.908856ZM23.9272 0.820181L2.09649 9.60238L2.2831 10.0662L24.1138 1.28405L23.9272 0.820181ZM2.09681 9.60225C1.28628 9.927 0.768041 10.6744 0.750587 11.5485L1.25049 11.5584C1.26392 10.8856 1.65812 10.3167 2.28277 10.0664L2.09681 9.60225ZM0.750604 11.5477C0.730469 12.4202 1.21478 13.1903 2.00915 13.5513L2.21599 13.0961C1.60368 12.8178 1.23496 12.2312 1.25047 11.5592L0.750604 11.5477ZM2.00927 13.5513L9.2755 16.8482L9.48209 16.3929L2.21587 13.096L2.00927 13.5513ZM9.15113 16.7239L12.448 23.9901L12.9033 23.7835L9.60645 16.5173L9.15113 16.7239ZM12.4479 23.9899C12.801 24.7699 13.5496 25.25 14.4019 25.25V24.75C13.7454 24.75 13.1753 24.3842 12.9034 23.7837L12.4479 23.9899ZM14.4019 25.25C14.4154 25.25 14.4402 25.2502 14.4667 25.2479L14.4251 24.7497C14.423 24.7499 14.4193 24.75 14.4019 24.75V25.25ZM14.4509 25.2488C15.3236 25.2313 16.0723 24.7132 16.3971 23.9025L15.933 23.7166C15.6827 24.3411 15.1127 24.7354 14.4409 24.7489L14.4509 25.2488ZM16.397 23.9029L25.1792 2.07211L24.7153 1.88551L15.9331 23.7163L16.397 23.9029ZM25.1784 2.074C25.1896 2.04669 25.2019 2.01313 25.2108 1.97548L24.7241 1.86096C24.7234 1.8637 24.7215 1.87053 24.7161 1.88362L25.1784 2.074ZM25.1442 2.095C25.2232 2.01601 25.2186 1.91935 25.2186 1.91465H24.7186C24.7186 1.92 24.7174 1.88991 24.7259 1.8559C24.7365 1.81346 24.7585 1.7736 24.7907 1.74144L25.1442 2.095ZM25.2058 1.99371C25.2176 1.95838 25.2258 1.91977 25.2286 1.90776L24.7419 1.79324C24.7406 1.79882 24.7391 1.80532 24.7381 1.80963C24.737 1.81456 24.736 1.81858 24.7351 1.82227C24.7332 1.82983 24.7321 1.83372 24.7314 1.8356L25.2058 1.99371ZM25.2353 1.8505V1.84931H24.7353V1.8505H25.2353ZM25.2302 1.89917C25.2677 1.71531 25.2479 1.52514 25.1789 1.35495L24.7156 1.54291C24.7487 1.62459 24.7575 1.7148 24.7403 1.79945L25.2302 1.89917Z" fill="#1FEBF3"/>
</svg>
