<svg width="64" height="64" viewBox="0 0 64 64" fill="none" xmlns="http://www.w3.org/2000/svg">
<g filter="url(#filter0_di)">
<rect x="9" y="5" width="46" height="46" rx="23" stroke="#1FEBF3" stroke-width="2"/>
</g>
<path fill-rule="evenodd" clip-rule="evenodd" d="M42.5694 37.9102C42.5694 38.1808 42.3726 38.4128 42.1114 38.4502C39.7327 38.7887 37.3159 38.6743 34.9635 38.1117C28.2153 36.4838 23.0261 31.2309 21.7426 24.7238C21.5338 23.714 21.4324 22.6838 21.4324 21.5743C21.4324 20.2691 21.5839 18.983 21.8833 17.7525C21.9394 17.5238 22.1744 17.3585 22.444 17.3585H26.5201C27.5472 17.3585 28.3835 18.1509 28.3835 19.1268V21.126L25.9654 22.1087C25.1125 22.4551 24.6115 23.3177 24.7749 24.16C25.7793 29.3653 29.8901 33.6808 35.2486 35.1536C36.2327 35.4253 37.2813 34.9623 37.6809 34.0792L38.5995 32.0449H40.7061C41.7332 32.0449 42.5694 32.8385 42.5694 33.8132V37.9102ZM40.7052 30.6864H38.1261C37.8399 30.6864 37.581 30.8483 37.4677 31.0974L36.3642 33.5449C36.2497 33.7996 35.9419 33.9298 35.6461 33.8494C30.8041 32.5181 27.0894 28.6181 26.1816 23.9143C26.1387 23.6902 26.2842 23.4558 26.5288 23.3574L29.3798 22.1992C29.6434 22.0917 29.814 21.846 29.814 21.5743V19.1268C29.814 17.4026 28.336 16 26.5192 16H22.4431C21.5138 16 20.6919 16.6091 20.4879 17.4479C20.1646 18.777 20 20.166 20 21.5743C20 22.7732 20.1097 23.8883 20.3352 24.9796C21.7202 31.9985 27.3232 37.6702 34.6107 39.4283C36.1948 39.8075 37.8112 40 39.4157 40C40.3807 40 41.3577 39.9298 42.3216 39.7928C43.2783 39.657 44 38.8487 44 37.9102V33.8132C44 32.0891 42.522 30.6864 40.7052 30.6864Z" fill="#1FEBF3"/>
<path d="M42.1114 38.4502L42.1466 38.6977L42.1468 38.6977L42.1114 38.4502ZM34.9635 38.1117L34.9049 38.3547L34.9053 38.3548L34.9635 38.1117ZM21.7426 24.7238L21.9879 24.6754L21.9874 24.6732L21.7426 24.7238ZM21.8833 17.7525L21.6405 17.6929L21.6404 17.6933L21.8833 17.7525ZM28.3835 21.126L28.4776 21.3576L28.6335 21.2943V21.126H28.3835ZM25.9654 22.1087L26.0595 22.3403L26.0596 22.3403L25.9654 22.1087ZM24.7749 24.16L25.0204 24.1126L25.0203 24.1124L24.7749 24.16ZM35.2486 35.1536L35.3151 34.9126L35.3149 34.9125L35.2486 35.1536ZM37.6809 34.0792L37.9087 34.1823L37.9088 34.1821L37.6809 34.0792ZM38.5995 32.0449V31.7949H38.438L38.3716 31.942L38.5995 32.0449ZM37.4677 31.0974L37.2401 30.9938L37.2398 30.9946L37.4677 31.0974ZM36.3642 33.5449L36.1363 33.4422L36.1362 33.4424L36.3642 33.5449ZM35.6461 33.8494L35.5798 34.0905L35.5806 34.0907L35.6461 33.8494ZM26.1816 23.9143L25.9361 23.9614L25.9361 23.9617L26.1816 23.9143ZM26.5288 23.3574L26.6222 23.5893L26.6228 23.589L26.5288 23.3574ZM29.3798 22.1992L29.4739 22.4309L29.4742 22.4307L29.3798 22.1992ZM20.4879 17.4479L20.7308 17.507L20.7308 17.507L20.4879 17.4479ZM20.3352 24.9796L20.5805 24.9312L20.58 24.929L20.3352 24.9796ZM34.6107 39.4283L34.552 39.6713L34.5525 39.6714L34.6107 39.4283ZM42.3216 39.7928L42.2864 39.5453L42.2864 39.5453L42.3216 39.7928ZM42.3194 37.9102C42.3194 38.0612 42.2093 38.1836 42.076 38.2027L42.1468 38.6977C42.5359 38.642 42.8194 38.3003 42.8194 37.9102H42.3194ZM42.0762 38.2027C39.7288 38.5367 37.3437 38.4239 35.0217 37.8686L34.9053 38.3548C37.2881 38.9247 39.7366 39.0406 42.1466 38.6977L42.0762 38.2027ZM35.0221 37.8687C28.363 36.2622 23.2514 31.0811 21.9878 24.6754L21.4973 24.7722C22.8009 31.3807 28.0675 36.7053 34.9049 38.3547L35.0221 37.8687ZM21.9874 24.6732C21.7823 23.6812 21.6824 22.6681 21.6824 21.5743H21.1824C21.1824 22.6995 21.2853 23.7467 21.4977 24.7744L21.9874 24.6732ZM21.6824 21.5743C21.6824 20.2883 21.8317 19.0221 22.1262 17.8116L21.6404 17.6933C21.3361 18.9439 21.1824 20.2498 21.1824 21.5743H21.6824ZM22.1261 17.812C22.1497 17.716 22.2665 17.6085 22.444 17.6085V17.1085C22.0823 17.1085 21.7291 17.3315 21.6405 17.6929L22.1261 17.812ZM22.444 17.6085H26.5201V17.1085H22.444V17.6085ZM26.5201 17.6085C27.4218 17.6085 28.1335 18.3013 28.1335 19.1268H28.6335C28.6335 18.0006 27.6727 17.1085 26.5201 17.1085V17.6085ZM28.1335 19.1268V21.126H28.6335V19.1268H28.1335ZM28.2893 20.8944L25.8713 21.8771L26.0596 22.3403L28.4776 21.3576L28.2893 20.8944ZM25.8714 21.8771C24.9197 22.2636 24.341 23.2359 24.5295 24.2076L25.0203 24.1124C24.882 23.3996 25.3054 22.6466 26.0595 22.3403L25.8714 21.8771ZM24.5295 24.2074C25.553 29.5116 29.7377 33.8981 35.1823 35.3946L35.3149 34.9125C30.0425 33.4634 26.0057 29.219 25.0204 24.1126L24.5295 24.2074ZM35.1821 35.3946C36.2753 35.6964 37.4543 35.1863 37.9087 34.1823L37.4532 33.9762C37.1083 34.7382 36.1902 35.1542 35.3151 34.9126L35.1821 35.3946ZM37.9088 34.1821L38.8273 32.1478L38.3716 31.942L37.4531 33.9764L37.9088 34.1821ZM38.5995 32.2949H40.7061V31.7949H38.5995V32.2949ZM40.7061 32.2949C41.6076 32.2949 42.3194 32.9887 42.3194 33.8132H42.8194C42.8194 32.6883 41.8588 31.7949 40.7061 31.7949V32.2949ZM42.3194 33.8132V37.9102H42.8194V33.8132H42.3194ZM40.7052 30.4364H38.1261V30.9364H40.7052V30.4364ZM38.1261 30.4364C37.7473 30.4364 37.3963 30.6507 37.2401 30.9938L37.6952 31.2009C37.7657 31.0459 37.9324 30.9364 38.1261 30.9364V30.4364ZM37.2398 30.9946L36.1363 33.4422L36.5921 33.6477L37.6956 31.2001L37.2398 30.9946ZM36.1362 33.4424C36.0793 33.5691 35.9065 33.6611 35.7117 33.6082L35.5806 34.0907C35.9774 34.1985 36.4202 34.0302 36.5922 33.6474L36.1362 33.4424ZM35.7124 33.6084C30.9565 32.3007 27.3158 28.4718 26.4271 23.867L25.9361 23.9617C26.863 28.7644 30.6517 32.7355 35.5798 34.0905L35.7124 33.6084ZM26.4272 23.8673C26.4112 23.7841 26.4646 23.6527 26.6222 23.5893L26.4354 23.1255C26.1038 23.259 25.8661 23.5963 25.9361 23.9614L26.4272 23.8673ZM26.6228 23.589L29.4739 22.4309L29.2857 21.9676L26.4347 23.1257L26.6228 23.589ZM29.4742 22.4307C29.8261 22.2872 30.064 21.9538 30.064 21.5743H29.564C29.564 21.7383 29.4607 21.8962 29.2854 21.9678L29.4742 22.4307ZM30.064 21.5743V19.1268H29.564V21.5743H30.064ZM30.064 19.1268C30.064 17.2524 28.4616 15.75 26.5192 15.75V16.25C28.2104 16.25 29.564 17.5529 29.564 19.1268H30.064ZM26.5192 15.75H22.4431V16.25H26.5192V15.75ZM22.4431 15.75C21.4108 15.75 20.479 16.4264 20.245 17.3889L20.7308 17.507C20.9047 16.7917 21.6168 16.25 22.4431 16.25V15.75ZM20.245 17.3888C19.9169 18.7377 19.75 20.1467 19.75 21.5743H20.25C20.25 20.1854 20.4124 18.8162 20.7308 17.507L20.245 17.3888ZM19.75 21.5743C19.75 22.7889 19.8612 23.921 20.0904 25.0302L20.58 24.929C20.3583 23.8556 20.25 22.7575 20.25 21.5743H19.75ZM20.0899 25.028C21.4949 32.1484 27.1755 37.8917 34.552 39.6713L34.6693 39.1853C27.4709 37.4486 21.9454 31.8486 20.5805 24.9312L20.0899 25.028ZM34.5525 39.6714C36.1554 40.0552 37.7913 40.25 39.4157 40.25V39.75C37.8311 39.75 36.2343 39.5599 34.6689 39.1852L34.5525 39.6714ZM39.4157 40.25C40.3927 40.25 41.3815 40.1789 42.3568 40.0403L42.2864 39.5453C41.334 39.6807 40.3687 39.75 39.4157 39.75V40.25ZM42.3567 40.0403C43.4308 39.8878 44.25 38.9791 44.25 37.9102H43.75C43.75 38.7183 43.1258 39.4261 42.2864 39.5453L42.3567 40.0403ZM44.25 37.9102V33.8132H43.75V37.9102H44.25ZM44.25 33.8132C44.25 31.9388 42.6476 30.4364 40.7052 30.4364V30.9364C42.3964 30.9364 43.75 32.2393 43.75 33.8132H44.25Z" fill="#1FEBF3"/>
<defs>
<filter id="filter0_di" x="0" y="0" width="64" height="64" filterUnits="userSpaceOnUse" color-interpolation-filters="sRGB">
<feFlood flood-opacity="0" result="BackgroundImageFix"/>
<feColorMatrix in="SourceAlpha" type="matrix" values="0 0 0 0 0 0 0 0 0 0 0 0 0 0 0 0 0 0 127 0"/>
<feOffset dy="4"/>
<feGaussianBlur stdDeviation="4"/>
<feColorMatrix type="matrix" values="0 0 0 0 0 0 0 0 0 0 0 0 0 0 0 0 0 0 0.25 0"/>
<feBlend mode="normal" in2="BackgroundImageFix" result="effect1_dropShadow"/>
<feBlend mode="normal" in="SourceGraphic" in2="effect1_dropShadow" result="shape"/>
<feColorMatrix in="SourceAlpha" type="matrix" values="0 0 0 0 0 0 0 0 0 0 0 0 0 0 0 0 0 0 127 0" result="hardAlpha"/>
<feOffset dy="1"/>
<feComposite in2="hardAlpha" operator="arithmetic" k2="-1" k3="1"/>
<feColorMatrix type="matrix" values="0 0 0 0 1 0 0 0 0 1 0 0 0 0 1 0 0 0 0.15 0"/>
<feBlend mode="normal" in2="shape" result="effect2_innerShadow"/>
</filter>
</defs>
</svg>
