<svg width="88" height="32" viewBox="0 0 88 32" fill="none" xmlns="http://www.w3.org/2000/svg">
<path d="M49.0723 9.68736H46.0043V16.7829C46.0043 18.6098 45.2546 20.0616 43.0532 20.0616C40.8756 20.0854 40.2436 18.5868 40.2436 16.6898V9.68736H37.1756V17.4626C37.1756 19.7102 37.9715 22.9188 42.1874 22.9426C44.5057 22.9657 45.6529 21.8416 46.1919 20.835V22.5444H49.0723V9.68736Z" fill="white"/>
<path d="M50.2918 22.545H53.3597V15.4488C53.3597 13.6456 54.1087 12.1939 56.287 12.1701C58.4415 12.1701 59.0736 13.6457 59.0736 15.5657V22.545H62.1415V14.7929C62.1415 12.5215 61.3457 9.31285 57.1536 9.28976C54.8584 9.26667 53.7104 10.3901 53.149 11.3974C53.1721 10.7884 53.1721 10.2501 53.1721 9.68805H50.2918V22.545Z" fill="white"/>
<path d="M63.3154 22.545H66.3833V9.68805H63.3154V22.545ZM63.3154 7.95492H66.3833V5.21454H63.3154V7.95492Z" fill="white"/>
<path d="M69.5928 22.545H72.6608V12.0532H74.8622L73.9516 9.68805H72.6608V5.21454H69.5928V9.68805H67.4614V12.0532H69.5928V22.545Z" fill="white"/>
<path d="M77.8255 27.0402H81.1041L87.8729 9.68656H84.5942L81.5024 18.2346L78.3645 9.68656H75.0858L79.9331 22.0515L77.8255 27.0402Z" fill="white"/>
<path d="M20.3553 16.0007L25.9551 6.33073L28.6611 16.0007L25.9551 25.6685L20.3553 16.0007ZM17.6258 17.5708L23.2265 27.2393L13.4728 24.7406L6.42575 17.5708H17.6261H17.6258ZM23.2254 4.75923L17.6258 14.4292H6.42547L13.4725 7.25934L23.2255 4.75923H23.2254ZM31.2199 12.7098L27.8033 5.58495e-07L15.0516 3.40636L13.164 6.72469L9.33375 6.69728L0 16.0014L9.33375 25.3034H9.33397L13.1626 25.2753L15.053 28.5936L27.8032 32L31.2199 19.2916L29.2795 16.0007L31.2199 12.7098" fill="white"/>
</svg>
