<svg xmlns="http://www.w3.org/2000/svg" viewBox="0 0 22.76 24"><defs><style>.cls-1{fill:#1febf3;}</style></defs><title>viber</title><g id="Слой_2" data-name="Слой 2"><g id="Слой_1-2" data-name="Слой 1"><path class="cls-1" d="M12.27,13.75a.82.82,0,0,0,.66-.25l.45-.56a1,1,0,0,1,1.25-.17,12.39,12.39,0,0,1,2.15,1.54A.86.86,0,0,1,17,15.42h0A4.71,4.71,0,0,1,16,16.58h0a1.54,1.54,0,0,1-1.49.4h0a18.07,18.07,0,0,1-4.79-2.65A15.2,15.2,0,0,1,5.09,7.55h0a1.55,1.55,0,0,1,.4-1.49h0a4.67,4.67,0,0,1,1.15-.93h0a.86.86,0,0,1,1.12.18A12.49,12.49,0,0,1,9.3,7.44a1,1,0,0,1-.17,1.25l-.56.45a.83.83,0,0,0-.25.66A5.87,5.87,0,0,0,12.27,13.75Zm4.91-2.62a.3.3,0,0,1-.3-.3A5.87,5.87,0,0,0,15.24,6.5a5.62,5.62,0,0,0-4-1.59.3.3,0,0,1,0-.61h0a6.21,6.21,0,0,1,4.45,1.76,6.45,6.45,0,0,1,1.82,4.76.3.3,0,0,1-.3.31Zm-1.59-.62h0a.3.3,0,0,1-.3-.31,3.5,3.5,0,0,0-.91-2.57,3.77,3.77,0,0,0-2.64-1.15.3.3,0,1,1,0-.61,4.41,4.41,0,0,1,3,1.35,4.13,4.13,0,0,1,1.06,3A.3.3,0,0,1,15.58,10.51ZM14,10a.3.3,0,0,1-.3-.29A1.45,1.45,0,0,0,12.2,8.11a.3.3,0,0,1,0-.61,2,2,0,0,1,2.1,2.16A.3.3,0,0,1,14,10Zm6.82,3.47c-.6,4.88-4.17,5.18-4.83,5.4a20.06,20.06,0,0,1-6.15.52s-2.44,2.94-3.2,3.7a.41.41,0,0,1-.35.15c-.13,0-.17-.19-.16-.41l0-4h0c-4.76-1.32-4.49-6.3-4.43-8.9s.54-4.74,2-6.17c2.61-2.36,8-2,8-2,4.54,0,6.72,1.39,7.22,1.85C20.61,5,21.47,8.42,20.84,13.45ZM20.19,2.34c-.6-.55-3-2.3-8.38-2.32,0,0-6.33-.38-9.42,2.45C.68,4.19.08,6.7,0,9.82s-.15,9,5.48,10.54h0v2.42s0,1,.61,1.18,1.24-.5,2-1.3c.41-.44,1-1.09,1.4-1.58a21.79,21.79,0,0,0,7.15-.53c.78-.25,5.18-.82,5.89-6.66C23.27,7.87,22.17,4.06,20.19,2.34Z"/></g></g></svg>