<svg width="32" height="32" viewBox="0 0 32 32" fill="none" xmlns="http://www.w3.org/2000/svg">
<path d="M28.7671 0H3.23287C2.37546 0 1.55317 0.340605 0.946885 0.946885C0.340605 1.55317 0 2.37546 0 3.23287L0 28.7671C0 29.6245 0.340605 30.4468 0.946885 31.0531C1.55317 31.6594 2.37546 32 3.23287 32H28.7671C29.6245 32 30.4468 31.6594 31.0531 31.0531C31.6594 30.4468 32 29.6245 32 28.7671V3.23287C32 2.37546 31.6594 1.55317 31.0531 0.946885C30.4468 0.340605 29.6245 0 28.7671 0V0ZM19.672 3.13049H22.4523V5.92692H19.672V3.13049ZM14.6179 3.13049H17.4036V5.92692H14.6179V3.13049ZM9.5639 3.13049H12.3442V5.92692H9.5639V3.13049ZM7.28473 28.9018H4.50446V26.1216H7.28473V28.9018ZM7.28473 5.91076H4.50446V3.13049H7.28473V5.91076ZM12.3442 28.9018H9.5639V26.1216H12.3442V28.9018ZM17.3928 28.9018H14.6126V26.1216H17.3928V28.9018ZM22.4523 28.9018H19.672V26.1216H22.4523V28.9018ZM23.0719 16.8001L12.3927 22.9641C12.2549 23.0437 12.0985 23.0855 11.9394 23.0854C11.7802 23.0853 11.624 23.0432 11.4863 22.9635C11.3486 22.8837 11.2344 22.769 11.1551 22.631C11.0758 22.493 11.0344 22.3366 11.0349 22.1775V9.84947C11.0344 9.69034 11.0758 9.5339 11.1551 9.39591C11.2344 9.25792 11.3486 9.14326 11.4863 9.06349C11.624 8.98372 11.7802 8.94165 11.9394 8.94153C12.0985 8.94141 12.2549 8.98324 12.3927 9.06281L23.0719 15.2268C23.2108 15.3059 23.3263 15.4203 23.4066 15.5585C23.487 15.6967 23.5293 15.8536 23.5293 16.0135C23.5293 16.1733 23.487 16.3303 23.4066 16.4685C23.3263 16.6066 23.2108 16.7211 23.0719 16.8001ZM27.5117 28.9018H24.7314V26.1216H27.5117V28.9018ZM27.5117 5.91076H24.7314V3.13049H27.5117V5.91076Z" fill="#1FEBF3"/>
</svg>
